<svg width="559" height="471" viewBox="0 0 559 471" fill="none" xmlns="http://www.w3.org/2000/svg">
<g clip-path="url(#clip0_199_3582)">
<path d="M285.297 471C415.415 471 520.896 365.563 520.896 235.5C520.896 105.437 415.415 0 285.297 0C155.179 0 49.6982 105.437 49.6982 235.5C49.6982 365.563 155.179 471 285.297 471Z" fill="#FAEFE9"/>
<path d="M416.05 132.831H271.582V356.449H416.05V132.831Z" fill="white"/>
<path d="M242.627 269.317H390.753" stroke="black" stroke-miterlimit="10"/>
<path d="M242.627 283.941H390.753" stroke="black" stroke-miterlimit="10"/>
<path d="M242.627 298.564H390.753" stroke="black" stroke-miterlimit="10"/>
<path d="M242.627 313.188H390.753" stroke="black" stroke-miterlimit="10"/>
<path d="M343.816 235.805C364.688 235.805 381.609 218.891 381.609 198.027C381.609 177.163 364.688 160.25 343.816 160.25C322.943 160.25 306.022 177.163 306.022 198.027C306.022 218.891 322.943 235.805 343.816 235.805Z" fill="#F2F2F2"/>
<path opacity="0.7" d="M450.491 212.346H390.753V267.794H450.491V212.346Z" fill="#50B89D"/>
<path d="M402.017 241.887V240.75L411.165 236.091V237.909L404.148 241.29L404.205 241.176V241.46L404.148 241.347L411.165 244.728V246.546L402.017 241.887ZM425.485 231.773L420.797 249.188H419.263L423.951 231.773H425.485ZM442.727 241.887L433.58 246.546V244.728L440.597 241.347L440.54 241.46V241.176L440.597 241.29L433.58 237.909V236.091L442.727 240.75V241.887Z" fill="white"/>
<path d="M344.425 22.8494H21.9629V234.891H344.425V22.8494Z" stroke="black" stroke-miterlimit="10"/>
<path d="M21.9629 34.1216H344.425" stroke="black" stroke-miterlimit="10"/>
<path d="M142.353 53.0105H45.4312V149.891H142.353V53.0105Z" stroke="black" stroke-miterlimit="10"/>
<path d="M160.945 61.5408H309.07" stroke="black" stroke-miterlimit="10"/>
<path d="M160.945 76.1643H309.07" stroke="black" stroke-miterlimit="10"/>
<path d="M160.945 90.7878H309.07" stroke="black" stroke-miterlimit="10"/>
<path d="M160.945 105.411H309.07" stroke="black" stroke-miterlimit="10"/>
<path opacity="0.44" d="M93.8919 78.6016L67.4976 124.3H120.286L93.8919 78.6016Z" fill="#50B89D"/>
<path d="M28.973 31.3798C30.488 31.3798 31.7161 30.1522 31.7161 28.6379C31.7161 27.1236 30.488 25.896 28.973 25.896C27.4581 25.896 26.23 27.1236 26.23 28.6379C26.23 30.1522 27.4581 31.3798 28.973 31.3798Z" fill="#AB8DE5"/>
<path d="M38.4213 31.3798C39.9362 31.3798 41.1644 30.1522 41.1644 28.6379C41.1644 27.1236 39.9362 25.896 38.4213 25.896C36.9063 25.896 35.6782 27.1236 35.6782 28.6379C35.6782 30.1522 36.9063 31.3798 38.4213 31.3798Z" fill="#73E5E2"/>
<path d="M47.8695 31.3798C49.3845 31.3798 50.6126 30.1522 50.6126 28.6379C50.6126 27.1236 49.3845 25.896 47.8695 25.896C46.3546 25.896 45.1265 27.1236 45.1265 28.6379C45.1265 30.1522 46.3546 31.3798 47.8695 31.3798Z" fill="#50B89D"/>
<path d="M163.993 195.742L173.136 187.669H163.81L163.993 195.742Z" fill="#AB8DE5"/>
<path d="M212.953 157.508H167.455C160.493 157.508 154.849 163.149 154.849 170.108V175.982C154.849 182.941 160.493 188.583 167.455 188.583H212.953C219.915 188.583 225.559 182.941 225.559 175.982V170.108C225.559 163.149 219.915 157.508 212.953 157.508Z" fill="#AB8DE5"/>
<path d="M180.756 175.787C182.271 175.787 183.499 174.56 183.499 173.045C183.499 171.531 182.271 170.303 180.756 170.303C179.241 170.303 178.013 171.531 178.013 173.045C178.013 174.56 179.241 175.787 180.756 175.787Z" fill="white"/>
<path d="M190.204 175.787C191.719 175.787 192.947 174.56 192.947 173.045C192.947 171.531 191.719 170.303 190.204 170.303C188.689 170.303 187.461 171.531 187.461 173.045C187.461 174.56 188.689 175.787 190.204 175.787Z" fill="white"/>
<path d="M199.653 175.787C201.168 175.787 202.396 174.56 202.396 173.045C202.396 171.531 201.168 170.303 199.653 170.303C198.138 170.303 196.91 171.531 196.91 173.045C196.91 174.56 198.138 175.787 199.653 175.787Z" fill="white"/>
<path d="M453.539 104.345L444.395 96.2717H453.721L453.539 104.345Z" fill="#73E5E2"/>
<path d="M404.578 97.1858L450.076 97.1858C457.038 97.1858 462.682 91.5443 462.682 84.5852V78.7114C462.682 71.7522 457.038 66.1108 450.076 66.1108H404.578C397.616 66.1108 391.972 71.7522 391.972 78.7114V84.5852C391.972 91.5443 397.616 97.1858 404.578 97.1858Z" fill="#73E5E2"/>
<path d="M436.775 84.3901C438.29 84.3901 439.518 83.1625 439.518 81.6482C439.518 80.1338 438.29 78.9062 436.775 78.9062C435.26 78.9062 434.032 80.1338 434.032 81.6482C434.032 83.1625 435.26 84.3901 436.775 84.3901Z" fill="white"/>
<path d="M427.327 84.3901C428.842 84.3901 430.07 83.1625 430.07 81.6482C430.07 80.1338 428.842 78.9062 427.327 78.9062C425.812 78.9062 424.584 80.1338 424.584 81.6482C424.584 83.1625 425.812 84.3901 427.327 84.3901Z" fill="white"/>
<path d="M417.879 84.3901C419.394 84.3901 420.622 83.1625 420.622 81.6482C420.622 80.1338 419.394 78.9062 417.879 78.9062C416.364 78.9062 415.136 80.1338 415.136 81.6482C415.136 83.1625 416.364 84.3901 417.879 84.3901Z" fill="white"/>
<path d="M448.662 28.6379C450.177 28.6379 451.405 27.4103 451.405 25.896C451.405 24.3816 450.177 23.1541 448.662 23.1541C447.147 23.1541 445.919 24.3816 445.919 25.896C445.919 27.4103 447.147 28.6379 448.662 28.6379Z" fill="#F98B67"/>
<path d="M454.453 39.9101C455.968 39.9101 457.196 38.6825 457.196 37.1682C457.196 35.6539 455.968 34.4263 454.453 34.4263C452.938 34.4263 451.71 35.6539 451.71 37.1682C451.71 38.6825 452.938 39.9101 454.453 39.9101Z" fill="#F98B67"/>
<path d="M391.362 152.633C393.719 152.633 395.629 150.724 395.629 148.368C395.629 146.013 393.719 144.103 391.362 144.103C389.006 144.103 387.095 146.013 387.095 148.368C387.095 150.724 389.006 152.633 391.362 152.633Z" fill="#F98B67"/>
<path d="M416.355 167.257C418.711 167.257 420.622 165.347 420.622 162.992C420.622 160.636 418.711 158.727 416.355 158.727C413.998 158.727 412.088 160.636 412.088 162.992C412.088 165.347 413.998 167.257 416.355 167.257Z" fill="#F98B67"/>
<path d="M32.3256 172.131C34.6822 172.131 36.5926 170.222 36.5926 167.866C36.5926 165.511 34.6822 163.601 32.3256 163.601C29.969 163.601 28.0586 165.511 28.0586 167.866C28.0586 170.222 29.969 172.131 32.3256 172.131Z" fill="#F98B67"/>
<path d="M401.237 362.694V362.085L399.774 360.257L396.391 356.15L392.795 351.8C392.795 351.8 389.332 349.405 388.443 348.991C385.2 347.492 382.005 346.346 378.19 346.346C375.843 346.346 367.071 346.7 367.053 348.174C367.053 350.362 379.336 358.642 388.345 362.664C392.301 362.694 401.237 362.694 401.237 362.694Z" fill="#1F161E"/>
<path d="M399.378 362.695C386.876 353.08 361.353 300.636 367.9 281.199C381.835 288.297 397.123 312.773 404.334 333.441C404.722 334.785 405.033 336.151 405.267 337.53L408.193 350.935L408.9 362.713L399.378 362.695Z" fill="#FBDC8E"/>
<path d="M407.912 362.694C403.694 359.27 402.347 349.131 402.31 345.347C402.243 338.285 403.328 333.082 409.369 325.313C415.41 317.544 413.8 304.657 421.822 295.962C429.844 287.267 435.16 284.842 444.681 284.842C454.203 284.842 457.226 300.27 457.177 304.151C457.068 319.811 447.199 322.029 441.176 329.499C436.806 334.922 436.464 339.358 435.141 341.892C428.046 355.553 422.279 360.69 418.012 362.694" fill="#73E5E2"/>
<path d="M410.241 361.561C410.363 334.855 438.519 294.744 444.535 288.73" stroke="white" stroke-width="0.4" stroke-linecap="round" stroke-linejoin="round"/>
<path d="M411.758 349.424C408.643 346.03 405.809 336.409 406.236 333.91" stroke="white" stroke-width="0.4" stroke-linecap="round" stroke-linejoin="round"/>
<path d="M403.779 360.391C399.366 352.574 378.427 314.455 370.619 286.378" stroke="white" stroke-width="0.4" stroke-linecap="round" stroke-linejoin="round"/>
<path d="M418.037 362.694H431.155L420.183 403.518H390.844L380.049 362.694H418.037Z" fill="#B37361"/>
<path d="M371.344 349.003C377.738 349.442 385.784 349.734 391.46 353.603" stroke="white" stroke-width="0.4" stroke-linecap="round" stroke-linejoin="round"/>
<path d="M472.704 195.59C471.161 202.945 459.957 294.171 463.621 315.96C467.284 337.749 527.016 383.405 529.631 384.203C532.679 381.967 537.166 374.637 537.166 374.637C537.166 374.637 493.368 323.887 492.533 321.852C491.698 319.817 502.127 202.293 502.127 202.293L472.704 195.59Z" fill="#1F161E"/>
<path d="M544.035 212.194L499.348 394.385H484.297L499.549 204.322L544.035 212.194Z" fill="#AB8DE5"/>
<path d="M512.295 107.879C518.464 107.879 550.643 108.921 556.458 120.242C562.274 131.563 556.794 183.891 553.179 185.92C551.228 187.011 550.698 185.951 550.131 188.169C549.564 190.386 544.035 212.194 544.035 212.194C540.524 212.291 489.332 204.583 472.716 195.572C472.813 193.067 473.618 186.554 473.618 186.054C471.411 186.956 468.741 187.145 468.01 186.054C461.524 176.238 471.192 125.062 478.129 114.764C481.079 110.347 502.396 107.91 512.295 107.879Z" fill="#FBDC8E"/>
<path d="M533.484 187.334C534.996 187.334 548.01 196.474 546.894 200.964C547.809 197.357 550.686 186.213 550.686 186.213C549.449 186.45 534.593 187.352 533.484 187.334Z" fill="#1F161E"/>
<path d="M520.262 113.851C520.262 115.837 504.59 115.837 504.59 113.851V93.7432H520.262V113.851Z" fill="#F8CDBA"/>
<path d="M511.271 98.5019C512.49 98.5019 520.262 101.938 520.262 103.852V93.7432C518.324 93.7432 511.271 98.5019 511.271 98.5019Z" fill="#1F161E"/>
<path d="M509.125 99.9703C517.545 99.9703 524.371 93.1476 524.371 84.7314C524.371 76.3151 517.545 69.4924 509.125 69.4924C500.705 69.4924 493.88 76.3151 493.88 84.7314C493.88 93.1476 500.705 99.9703 509.125 99.9703Z" fill="#F8CDBA"/>
<path d="M503.969 62.4548C496.142 62.4548 491.265 67.3659 491.265 73.6601C491.265 78.8941 492.533 81.8554 494.027 82.6049C494.971 77.5232 497.026 75.1712 498.726 74.1598C500.049 75.1712 502.311 77.6207 505.334 78.3762C508.357 79.1318 516.227 78.9855 522.585 83.6041C524.663 81.7153 526.736 79.2597 526.736 76.3655C526.736 73.4712 525.456 69.8397 517.928 67.7437C512.954 66.3605 512.259 62.4548 503.969 62.4548Z" fill="#1F161E"/>
<path d="M494.88 89.2585C496.354 89.2585 497.55 88.6365 497.55 87.8692C497.55 87.102 496.354 86.48 494.88 86.48C493.405 86.48 492.21 87.102 492.21 87.8692C492.21 88.6365 493.405 89.2585 494.88 89.2585Z" fill="#FA9E9F"/>
<path d="M511.673 89.2585C513.148 89.2585 514.343 88.6365 514.343 87.8692C514.343 87.102 513.148 86.48 511.673 86.48C510.199 86.48 509.003 87.102 509.003 87.8692C509.003 88.6365 510.199 89.2585 511.673 89.2585Z" fill="#FA9E9F"/>
<path d="M501.402 84.9873C500.902 85.7002 498.354 88.6919 501.043 89.8984" stroke="#1F161E" stroke-miterlimit="10" stroke-linecap="round"/>
<path d="M506.425 93.3957C507.229 93.3957 508.467 92.3964 509.119 91.5007" stroke="#1F161E" stroke-miterlimit="10" stroke-linecap="round"/>
<path d="M523.219 90.008C525.165 90.008 526.742 88.4312 526.742 86.4862C526.742 84.5411 525.165 82.9644 523.219 82.9644C521.273 82.9644 519.695 84.5411 519.695 86.4862C519.695 88.4312 521.273 90.008 523.219 90.008Z" fill="#F8CDBA"/>
<path d="M533.838 137.864C533.563 141.227 532.49 157.849 532.893 160.036C527.778 161.816 480.951 184.013 472.85 186.45" stroke="#1F161E" stroke-miterlimit="10" stroke-linecap="round"/>
<path d="M479.451 132.617C478.372 136.383 474.739 153.474 477.293 161.414" stroke="#1F161E" stroke-miterlimit="10" stroke-linecap="round"/>
<path d="M491.405 178.676C493.844 180.388 517.214 190.728 549.528 186.828" stroke="#1F161E" stroke-miterlimit="10" stroke-linecap="round"/>
<path d="M489.168 161.414C490.735 161.663 485.627 157.587 482.731 159.104C479.836 160.621 475.934 167.488 476.733 169.079C476.841 169.367 477.012 169.628 477.233 169.842C477.455 170.056 477.722 170.217 478.014 170.314C478.307 170.411 478.617 170.442 478.923 170.403C479.229 170.364 479.522 170.257 479.781 170.09C480.567 169.584 486.437 160.975 489.168 161.414Z" fill="#F8CDBA"/>
<path d="M536.666 375.386C537.501 375.996 544.907 381.004 544.968 384.161C545.029 387.317 538.068 397.779 536.666 398.077C535.264 398.376 534.264 397.194 534.264 395.08C534.264 392.965 536.91 389.261 536.556 387.615C536.203 385.97 532.783 382.96 531.027 382.905" fill="#1F161E"/>
<path d="M497.921 394.385C497.921 395.835 498.763 404.938 497.08 405.785C495.398 406.632 476.83 407.132 475.989 406.291C475.148 405.45 474.636 403.677 475.38 403.171C476.123 402.666 483.304 401.228 484.279 400.557C485.255 399.887 486.602 396.292 486.108 394.385" fill="#1F161E"/>
<path d="M133.733 326.8H15.8545V386.567H133.733V326.8Z" fill="#B37361"/>
<path d="M191.807 298.79C192.319 301.836 201.012 371.487 202.42 372.638C203.828 373.79 218.781 376.343 220.061 374.43C220.317 371.383 220.67 322.809 221.463 318.464" fill="#1F161E"/>
<path d="M23.6266 284.257C17.5979 281.29 30.1673 340.113 63.2486 340.113C96.33 340.113 152.014 289.741 161.03 289.741C180.932 289.741 228.046 328.798 231.74 328.798C234.568 325.971 240.225 321.023 240.225 319.049C240.225 317.075 195.117 242.885 161.365 242.885C148.278 242.903 37.2383 290.978 23.6266 284.257Z" fill="#50B89D"/>
<path d="M42.2431 285.257C48.8569 283.758 57.0861 279.876 64.3705 275.91C44.5534 282.387 28.3144 286.573 23.6268 284.257C20.4327 282.685 22.4565 298.43 29.9664 313.596C28.607 310.665 26.6686 288.815 42.2431 285.257Z" fill="#1F161E"/>
<path d="M56.8238 182.063C62.0356 182.203 89.1676 181.405 96.6043 188.485C102.121 193.738 119.274 238.906 121.92 254.767C110.399 260.622 27.3023 300.392 1.58455 282.905C1.01765 269.317 3.65709 215.301 20.4751 186.974C26.6257 182.88 51.8131 181.935 56.8238 182.063Z" fill="#73E5E2"/>
<path d="M67.3937 169.14H51.5449V186.164C51.5449 190.429 67.3937 190.393 67.3937 186.164V169.14Z" fill="#F8CDBA"/>
<path d="M51.5449 179.419C51.5449 177.53 56.7811 172.783 60.0179 172.954C60.0972 170.852 52.6239 167.83 52.6239 167.83L51.5449 170.736V179.419Z" fill="#1F161E"/>
<path d="M83.9923 169.14C84.3481 167.492 84.528 165.811 84.5287 164.125C84.5287 151.561 74.7085 141.373 62.5842 141.373C50.4598 141.373 40.6396 151.561 40.6396 164.125C40.6404 165.811 40.8202 167.492 41.1761 169.14H83.9923Z" fill="#1F161E"/>
<path d="M78.2074 153.803C75.5192 153.395 72.8371 151.281 70.9657 149.897C60.2983 157.709 53.465 157.812 52.7274 157.812C51.9898 157.812 48.9846 162.126 47.6009 162.614L47.479 162.541C47.8904 164.811 48.7696 166.97 50.0608 168.882C51.3519 170.794 53.0269 172.417 54.9791 173.647C56.9313 174.877 59.1182 175.688 61.4008 176.028C63.6834 176.368 66.0118 176.23 68.238 175.622C70.4643 175.014 72.5398 173.95 74.3326 172.498C76.1254 171.045 77.5963 169.236 78.652 167.184C79.7076 165.133 80.3248 162.885 80.4645 160.582C80.6041 158.28 80.2631 155.973 79.4631 153.809C79.0459 153.859 78.6241 153.857 78.2074 153.803V153.803Z" fill="#F8CDBA"/>
<path d="M50.6978 144.206C54.273 144.206 57.1714 141.309 57.1714 137.736C57.1714 134.162 54.273 131.265 50.6978 131.265C47.1225 131.265 44.2241 134.162 44.2241 137.736C44.2241 141.309 47.1225 144.206 50.6978 144.206Z" fill="#1F161E"/>
<path d="M53.5808 157.465C52.8812 157.498 52.2213 157.799 51.7379 158.306C51.2545 158.812 50.9849 159.486 50.9849 160.186C50.9849 160.886 51.2545 161.559 51.7379 162.065C52.2213 162.572 52.8812 162.873 53.5808 162.906" stroke="#1F161E" stroke-miterlimit="10" stroke-linecap="round"/>
<path d="M74.3306 157.812C75.1291 158.879 77.1834 160.749 74.3306 162.73" stroke="#1F161E" stroke-miterlimit="10" stroke-linecap="round"/>
<path d="M65.6812 164.156C65.6812 164.954 66.0225 166.861 67.7354 167.354" stroke="#1F161E" stroke-miterlimit="10" stroke-linecap="round"/>
<path d="M60.3718 164.344C61.7588 164.344 62.8832 163.761 62.8832 163.04C62.8832 162.32 61.7588 161.737 60.3718 161.737C58.9848 161.737 57.8604 162.32 57.8604 163.04C57.8604 163.761 58.9848 164.344 60.3718 164.344Z" fill="#FA9E9F"/>
<path d="M79.0427 164.344C80.4297 164.344 81.5541 163.761 81.5541 163.04C81.5541 162.32 80.4297 161.737 79.0427 161.737C77.6557 161.737 76.5312 162.32 76.5312 163.04C76.5312 163.761 77.6557 164.344 79.0427 164.344Z" fill="#FA9E9F"/>
<path d="M96.0312 229.145L112.971 224.788C114.599 227.555 122.523 254.736 122.523 254.736L96.3726 265.753C96.714 260.604 97.7441 237.023 96.0312 229.145Z" fill="#F8CDBA"/>
<path d="M36.6352 224.886C36.6352 226.933 34.9101 234.726 33.8921 238.388" stroke="#1F161E" stroke-miterlimit="10" stroke-linecap="round"/>
<path d="M96.0312 229.145C95.6228 225.922 93.2333 207.758 89.1675 198.198" stroke="#1F161E" stroke-miterlimit="10" stroke-linecap="round"/>
<path d="M96.0312 229.145L112.971 224.788C114.599 227.555 122.523 254.736 122.523 254.736L96.3726 265.753C96.714 260.604 97.7441 237.023 96.0312 229.145Z" fill="#F8CDBA"/>
<path d="M232.246 327.36C232.624 327.97 237.671 334.16 239.457 334.227C241.243 334.294 252.088 326.952 251.612 325.374C251.137 323.796 244.334 324.825 243.163 324.271C241.993 323.717 239.378 321.109 238.951 319.951" fill="#1F161E"/>
<path d="M205.577 373.284C205.449 373.961 204.761 381.937 205.998 383.228C207.235 384.52 220.14 386.762 220.89 385.294C221.64 383.825 216.013 379.847 215.58 378.64C215.148 377.434 215.056 373.766 215.58 372.62" fill="#1F161E"/>
<path d="M185.346 256.442H127.942L141.609 220.243H199.012L185.346 256.442Z" fill="#969696"/>
<path d="M137.513 255.077H80.1094V256.442H137.513V255.077Z" fill="#969696"/>
<path d="M33.8919 238.388C32.7886 242.507 27.4305 260.177 29.6127 263.224C31.795 266.271 86.449 259.367 101.073 254.815C104.797 253.597 107.558 250.404 109.21 249.99C111.332 249.631 113.511 250.068 115.329 251.217C117.147 252.367 118.476 254.147 119.061 256.217C113.221 259.044 28.9056 302.074 1.5847 282.923C-3.57835 279.225 5.47986 234.135 5.89436 231.863C10.5088 232.417 33.8919 238.388 33.8919 238.388Z" fill="#F8CDBA"/>
<path d="M96.8115 255.912C98.4574 255.522 99.8959 255.138 101.079 254.773C104.803 253.554 107.564 250.361 109.216 249.947C111.337 249.588 113.517 250.025 115.335 251.175C117.153 252.324 118.482 254.104 119.067 256.174" stroke="#1F161E" stroke-miterlimit="10" stroke-linecap="round"/>
</g>
<defs>
<clipPath id="clip0_199_3582">
<rect width="559" height="471" fill="white"/>
</clipPath>
</defs>
</svg>
