<svg width="468" height="410" viewBox="0 0 468 410" fill="none" xmlns="http://www.w3.org/2000/svg">
<path d="M314.882 98.5036H303.296V119.178H314.882V98.5036Z" fill="#E8E8E8"/>
<path d="M298.986 103.784H287.401V119.178H298.986V103.784Z" fill="#E8E8E8"/>
<path d="M330.778 84.8722H319.192V119.178H330.778V84.8722Z" fill="#E8E8E8"/>
<path d="M346.674 74.7471H335.088V119.178H346.674V74.7471Z" fill="#E8E8E8"/>
<path d="M281.471 116.866L293.18 103.726L309.093 98.6228L324.989 84.8722L340.901 74.7471L351.251 55.9021" stroke="#969696" stroke-width="2.31" stroke-linecap="round" stroke-linejoin="round"/>
<path d="M293.193 104.71C293.808 104.71 294.306 104.295 294.306 103.784C294.306 103.272 293.808 102.858 293.193 102.858C292.579 102.858 292.081 103.272 292.081 103.784C292.081 104.295 292.579 104.71 293.193 104.71Z" fill="white" stroke="#969696" stroke-width="1.14" stroke-linecap="round" stroke-linejoin="round"/>
<path d="M324.989 85.798C325.603 85.798 326.101 85.3835 326.101 84.8722C326.101 84.361 325.603 83.9465 324.989 83.9465C324.374 83.9465 323.876 84.361 323.876 84.8722C323.876 85.3835 324.374 85.798 324.989 85.798Z" fill="white" stroke="#969696" stroke-width="1.14" stroke-linecap="round" stroke-linejoin="round"/>
<path d="M340.885 75.6729C341.499 75.6729 341.997 75.2584 341.997 74.7471C341.997 74.2358 341.499 73.8214 340.885 73.8214C340.27 73.8214 339.772 74.2358 339.772 74.7471C339.772 75.2584 340.27 75.6729 340.885 75.6729Z" fill="white" stroke="#969696" stroke-width="1.14" stroke-linecap="round" stroke-linejoin="round"/>
<path d="M309.093 99.4294C309.707 99.4294 310.205 99.0149 310.205 98.5036C310.205 97.9923 309.707 97.5779 309.093 97.5779C308.478 97.5779 307.98 97.9923 307.98 98.5036C307.98 99.0149 308.478 99.4294 309.093 99.4294Z" fill="white" stroke="#969696" stroke-width="1.14" stroke-linecap="round" stroke-linejoin="round"/>
<path d="M228.298 338.164C252.263 338.164 271.69 333.866 271.69 328.563C271.69 323.261 252.263 318.963 228.298 318.963C204.333 318.963 184.906 323.261 184.906 328.563C184.906 333.866 204.333 338.164 228.298 338.164Z" fill="black"/>
<path d="M228.298 328.563L203.924 404.921" stroke="black" stroke-width="4" stroke-miterlimit="10" stroke-linecap="round"/>
<path d="M228.298 328.563L252.672 404.921" stroke="black" stroke-width="4" stroke-miterlimit="10" stroke-linecap="round"/>
<path d="M211.927 379.849L239.1 362.41" stroke="black" stroke-width="2" stroke-miterlimit="10" stroke-linecap="round"/>
<path d="M217.386 362.41L244.566 379.849" stroke="black" stroke-width="2" stroke-miterlimit="10" stroke-linecap="round"/>
<path d="M271.003 245.908C270.893 249.295 270.941 261.152 270.384 266.225" stroke="#1F161E" stroke-miterlimit="10" stroke-linecap="round"/>
<path d="M131.406 95.9463C131.406 93.5403 129.458 91.5899 127.054 91.5899C124.65 91.5899 122.702 93.5403 122.702 95.9463V110.984C122.702 113.39 124.65 115.34 127.054 115.34C129.458 115.34 131.406 113.39 131.406 110.984V95.9463Z" fill="black"/>
<path d="M127.054 140.618C131.876 140.618 135.786 136.705 135.786 131.878C135.786 127.051 131.876 123.138 127.054 123.138C122.231 123.138 118.322 127.051 118.322 131.878C118.322 136.705 122.231 140.618 127.054 140.618Z" fill="#FBDC8E"/>
<path d="M60.5453 296.245C73.6091 298.722 71.2783 376.766 46.2027 372.045C22.5229 367.544 44.6075 293.209 60.5453 296.245Z" fill="black"/>
<path d="M3.18857 305.88C13.5846 299.989 57.1007 354.798 37.1956 366.071C18.3907 376.766 -9.46954 313.065 3.18857 305.88Z" fill="#FBDC8E"/>
<path d="M56.1655 409.745H29.9142C28.8569 409.745 27.8367 409.354 27.049 408.648C26.2612 407.942 25.7612 406.971 25.6444 405.919L22.3304 376.133C22.2585 375.529 22.3153 374.916 22.497 374.336C22.6787 373.755 22.9812 373.22 23.3846 372.764C23.7879 372.309 24.283 371.945 24.8373 371.695C25.3915 371.445 25.9923 371.316 26.6001 371.315H59.3421C59.945 371.316 60.5412 371.443 61.0917 371.689C61.6423 371.935 62.1349 372.295 62.5376 372.744C62.9403 373.193 63.2441 373.722 63.4292 374.296C63.6143 374.871 63.6765 375.478 63.6119 376.078L60.4422 405.864C60.3366 406.926 59.8406 407.911 59.0504 408.629C58.2602 409.346 57.2322 409.744 56.1655 409.745Z" fill="#969696"/>
<path d="M67.923 265.853C77.8721 268.743 70.247 328.983 51.1945 323.436C33.2077 318.206 55.8149 262.329 67.923 265.853Z" fill="#AB8DE5"/>
<path d="M84.3284 313.78C91.204 319.713 63.2338 365.094 50.0188 353.697C37.5394 342.981 75.9332 306.568 84.3284 313.78Z" fill="#FBDC8E"/>
<path d="M43.1087 272.116C58.0014 272.116 71.6359 367.296 43.1087 367.296C16.1699 367.296 24.9776 272.116 43.1087 272.116Z" fill="#78E5E1"/>
<path d="M69.2431 364.873H16.8504C15.3125 364.873 14.0658 366.121 14.0658 367.661V372.74C14.0658 374.279 15.3125 375.527 16.8504 375.527H69.2431C70.781 375.527 72.0277 374.279 72.0277 372.74V367.661C72.0277 366.121 70.781 364.873 69.2431 364.873Z" fill="#D8D8D8"/>
<path d="M367.915 175.635L363.914 182.565H371.91L367.915 175.635Z" fill="white"/>
<path d="M386.831 182.565L390.832 175.635H382.829L386.831 182.565Z" fill="white"/>
<path d="M377.369 182.111C379.029 182.111 380.374 180.764 380.374 179.103C380.374 177.442 379.029 176.096 377.369 176.096C375.71 176.096 374.365 177.442 374.365 179.103C374.365 180.764 375.71 182.111 377.369 182.111Z" fill="white"/>
<path d="M389.921 145.266H344.634C336.413 145.266 329.749 151.937 329.749 160.165V182.278C329.749 190.506 336.413 197.177 344.634 197.177H389.921C398.142 197.177 404.806 190.506 404.806 182.278V160.165C404.806 151.937 398.142 145.266 389.921 145.266Z" fill="#D8D8D8"/>
<path d="M356.566 153.622H345.279V188.821H356.566V153.622Z" fill="#AB8DE5"/>
<path d="M372.928 177.038H361.64V188.833H372.928V177.038Z" fill="#AB8DE5"/>
<path d="M389.276 167.106H377.989V188.821H389.276V167.106Z" fill="#AB8DE5"/>
<path d="M127.054 105.526C123.596 105.525 120.172 106.206 116.977 107.53C113.782 108.854 110.879 110.795 108.434 113.242C105.988 115.689 104.048 118.594 102.725 121.792C101.401 124.99 100.72 128.417 100.72 131.878H153.388C153.388 128.417 152.707 124.99 151.383 121.792C150.06 118.594 148.12 115.689 145.674 113.242C143.229 110.795 140.326 108.854 137.131 107.53C133.936 106.206 130.512 105.525 127.054 105.526V105.526Z" fill="#AB8DE5"/>
<path d="M127.054 96.607V1" stroke="black" stroke-width="2" stroke-linecap="round" stroke-linejoin="round"/>
<path d="M333.599 395.816C333.599 397.447 332.643 407.736 334.548 408.685C336.452 409.635 357.389 410.213 358.338 409.256C359.286 408.3 359.857 406.304 359.025 405.733C358.193 405.162 350.087 403.544 348.987 402.78C347.887 402.016 346.367 397.963 346.924 395.816" fill="#1F161E"/>
<path d="M271.003 261.318L282.788 257.085C282.279 235.565 277.253 187.479 270.116 180.328C268.438 178.656 235.256 175.738 229.336 175.738C194.009 175.738 183.531 179.771 180.87 182.441C172.619 190.7 170.047 228.965 170.047 242.364C170.047 255.764 207.864 262.715 207.864 262.715L252.191 265.763C252.191 265.763 261.913 266.768 270.322 267.264C270.508 264.683 271.003 261.318 271.003 261.318Z" fill="#78E5E1"/>
<path d="M306.117 273.795C309.342 272.838 341.41 267.601 348.395 274.483C355.381 281.365 377.369 380.035 377.369 382.306H359.665L335.765 330.821" fill="#1F161E"/>
<path d="M189.361 265.02C188.557 269.046 183.723 273.368 183.723 295.302C183.723 325.631 208.544 326.271 217.455 326.271C245.219 326.271 290.138 318.013 293.17 316.499C295.185 319.871 332.265 395.644 332.437 397.337H349.509C349.509 397.337 338.928 283.974 319.834 271.118C313.632 266.989 203.601 262.57 189.361 265.02Z" fill="#55B79D"/>
<path d="M289.333 242.846C284.85 242.846 281.151 243.913 271.003 245.909L270.473 265.344C280.099 261.462 282.334 256.067 285.125 256.067C292.097 256.067 295.741 259.666 299.86 259.666C302.734 259.666 307.905 257.409 307.905 254.339C307.905 247.911 294.889 242.846 289.333 242.846Z" fill="#F8CDBA"/>
<path d="M360.669 380.943C360.669 382.581 359.713 392.863 361.617 393.82C363.522 394.776 384.458 395.341 385.407 394.391C386.356 393.441 386.927 391.439 386.095 390.867C385.263 390.296 377.156 388.672 376.056 387.908C374.956 387.144 373.437 383.091 373.994 380.943" fill="#1F161E"/>
<path d="M235.586 180.315C235.586 182.909 220.536 182.985 220.536 180.315V159.214H235.586V180.315Z" fill="#F8CDBA"/>
<path d="M230.684 166.172C229.309 166.172 220.536 170.053 220.536 172.221V160.769C222.722 160.769 230.684 166.172 230.684 166.172Z" fill="#1F161E"/>
<path d="M233.592 167.066C243.655 167.066 251.813 158.901 251.813 148.829C251.813 138.756 243.655 130.591 233.592 130.591C223.529 130.591 215.372 138.756 215.372 148.829C215.372 158.901 223.529 167.066 233.592 167.066Z" fill="#F8CDBA"/>
<path d="M252.397 134.514C250.142 138.1 245.425 139.744 240.317 139.744C235.964 139.744 229.625 138.478 225.115 141.052C222.674 142.428 219.875 145.56 219.312 151.829C219.312 152.903 218.095 157.067 218.095 158.409C218.095 159.324 217.063 159.923 215.344 159.923C214.457 159.923 212.704 158.484 212.704 156.289C212.704 153.75 213.715 152.848 213.715 150.694C213.715 148.54 211.081 146.468 211.081 140.481C211.081 131.857 216.582 126.544 220.474 126.544C224.021 126.544 225.135 127.37 225.582 127.721C225.582 119.882 235.896 116.304 239.987 116.304C244.662 116.304 246.862 118.224 246.862 120.667C246.862 124.562 245.006 127.873 244.064 128.616C246.196 126.696 248.966 125.639 251.834 125.65C257.19 125.65 258.991 129.173 258.991 131.582C258.991 136.819 252.714 141.671 250.376 141.671C249.788 140.426 249.098 139.231 248.313 138.1" fill="#1F161E"/>
<path d="M219.875 155.126C222.021 155.126 223.76 153.385 223.76 151.238C223.76 149.09 222.021 147.349 219.875 147.349C217.73 147.349 215.991 149.09 215.991 151.238C215.991 153.385 217.73 155.126 219.875 155.126Z" fill="#F8CDBA"/>
<path d="M251.992 152.173C253.655 152.173 255.003 151.471 255.003 150.604C255.003 149.738 253.655 149.035 251.992 149.035C250.329 149.035 248.98 149.738 248.98 150.604C248.98 151.471 250.329 152.173 251.992 152.173Z" fill="#FA9E9F"/>
<path d="M233.049 152.173C234.712 152.173 236.061 151.471 236.061 150.604C236.061 149.738 234.712 149.035 233.049 149.035C231.386 149.035 230.038 149.738 230.038 150.604C230.038 151.471 231.386 152.173 233.049 152.173Z" fill="#FA9E9F"/>
<path d="M244.635 147.349C245.198 148.154 248.072 151.533 245.04 152.903" stroke="#1F161E" stroke-miterlimit="10" stroke-linecap="round"/>
<path d="M238.969 156.846C238.061 156.846 236.666 155.718 235.93 154.706" stroke="#1F161E" stroke-miterlimit="10" stroke-linecap="round"/>
<path d="M262.993 205.827C264.368 208.752 271.003 236.969 271.003 245.908" stroke="#1F161E" stroke-miterlimit="10" stroke-linecap="round"/>
<path d="M170.047 240.093C170.047 271.813 170.343 281.014 183.063 281.014C212.381 281.014 256.701 256.927 264.602 256.927C271.58 256.927 275.224 260.533 279.343 260.533C282.21 260.533 287.381 258.269 287.381 255.206C287.381 248.771 274.365 243.706 268.816 243.706C256.323 243.706 206.468 255.764 205.251 255.764C204.034 255.764 201.985 255.234 201.985 253.183C201.985 249.46 204.419 240.857 204.735 240.107L170.047 240.093Z" fill="#F8CDBA"/>
<path d="M212.058 212.427C211.219 214.842 204.68 239.804 203.924 242.846" stroke="#1F161E" stroke-miterlimit="10" stroke-linecap="round"/>
<path d="M460.296 405.496C460.79 407.379 462.715 408.503 464.595 408.008C466.476 407.514 467.599 405.587 467.105 403.705L431.902 269.68C431.408 267.798 429.483 266.673 427.603 267.168C425.722 267.663 424.599 269.59 425.093 271.472L460.296 405.496Z" fill="#969696"/>
<path d="M424.743 271.478C425.238 269.595 424.114 267.669 422.234 267.174C420.353 266.679 418.428 267.804 417.934 269.686L382.731 403.71C382.237 405.593 383.361 407.519 385.241 408.014C387.121 408.509 389.046 407.384 389.541 405.502L424.743 271.478Z" fill="#969696"/>
<path d="M376.168 271.477C376.662 269.595 375.538 267.668 373.658 267.173C371.778 266.678 369.853 267.803 369.358 269.685L334.156 403.71C333.661 405.592 334.785 407.519 336.665 408.013C338.546 408.508 340.471 407.384 340.965 405.501L376.168 271.477Z" fill="#D8D8D8"/>
<path d="M411.108 403.023C411.594 404.911 413.517 406.046 415.403 405.56C417.289 405.073 418.424 403.149 417.938 401.261L383.325 266.839C382.839 264.952 380.916 263.816 379.031 264.302C377.145 264.789 376.01 266.713 376.496 268.601L411.108 403.023Z" fill="#D8D8D8"/>
<path d="M177.859 271.48C178.353 269.598 177.23 267.671 175.35 267.176C173.469 266.682 171.544 267.806 171.05 269.688L135.847 403.713C135.353 405.595 136.477 407.522 138.357 408.017C140.237 408.512 142.162 407.387 142.657 405.505L177.859 271.48Z" fill="#969696"/>
<path d="M212.813 405.505C213.308 407.387 215.233 408.512 217.113 408.017C218.993 407.522 220.117 405.595 219.622 403.713L184.42 269.689C183.926 267.806 182.001 266.682 180.12 267.177C178.24 267.671 177.116 269.598 177.611 271.48L212.813 405.505Z" fill="#969696"/>
<path d="M446.415 260.554H105.952C104.232 260.554 102.838 261.949 102.838 263.671V267.863C102.838 269.584 104.232 270.98 105.952 270.98H446.415C448.135 270.98 449.53 269.584 449.53 267.863V263.671C449.53 261.949 448.135 260.554 446.415 260.554Z" fill="#D8D8D8"/>
<path d="M127.547 271.482C128.041 269.6 126.917 267.673 125.037 267.178C123.157 266.684 121.232 267.808 120.737 269.69L85.5347 403.715C85.0404 405.597 86.1639 407.524 88.0443 408.019C89.9246 408.514 91.8496 407.389 92.344 405.507L127.547 271.482Z" fill="#D8D8D8"/>
<path d="M162.501 405.506C162.995 407.388 164.92 408.512 166.8 408.017C168.681 407.523 169.804 405.596 169.31 403.714L134.107 269.689C133.613 267.807 131.688 266.682 129.808 267.177C127.927 267.672 126.804 269.599 127.298 271.481L162.501 405.506Z" fill="#D8D8D8"/>
<path d="M357.726 260.554H294.119L305.643 220.885C305.93 219.928 306.52 219.09 307.323 218.496C308.126 217.901 309.099 217.583 310.098 217.588H364.072C364.781 217.577 365.483 217.732 366.122 218.04C366.76 218.348 367.318 218.801 367.751 219.363C368.184 219.925 368.479 220.581 368.614 221.278C368.749 221.974 368.719 222.693 368.527 223.376L357.726 260.554Z" fill="black"/>
<path d="M333.73 242.963C335.879 242.963 337.621 241.219 337.621 239.068C337.621 236.916 335.879 235.172 333.73 235.172C331.58 235.172 329.838 236.916 329.838 239.068C329.838 241.219 331.58 242.963 333.73 242.963Z" fill="white"/>
<path d="M301.675 257.766H257.045V260.554H301.675V257.766Z" fill="black"/>
<g clip-path="url(#clip0_197_1115)">
<path opacity="0.57" d="M415.53 123.915C428.548 123.915 439.101 113.345 439.101 100.307C439.101 87.2689 428.548 76.6994 415.53 76.6994C402.512 76.6994 391.959 87.2689 391.959 100.307C391.959 113.345 402.512 123.915 415.53 123.915Z" fill="#FADB93"/>
<path d="M406.725 123.915C419.743 123.915 430.296 113.345 430.296 100.307C430.296 87.2689 419.743 76.6994 406.725 76.6994C393.707 76.6994 383.154 87.2689 383.154 100.307C383.154 113.345 393.707 123.915 406.725 123.915Z" fill="#78E5E1"/>
<path d="M406.725 100.307V73.213" stroke="black" stroke-width="0.41" stroke-miterlimit="10"/>
<path d="M406.725 100.307L427.126 79.8745" stroke="black" stroke-width="0.41" stroke-miterlimit="10"/>
<path d="M406.725 100.307L422.045 120.975" stroke="black" stroke-width="0.41" stroke-miterlimit="10"/>
<path d="M410.646 123.915C423.664 123.915 434.217 113.345 434.217 100.307C434.217 87.2689 423.664 76.6994 410.646 76.6994C397.628 76.6994 387.074 87.2689 387.074 100.307C387.074 113.345 397.628 123.915 410.646 123.915Z" stroke="black" stroke-width="0.41" stroke-miterlimit="10"/>
</g>
<defs>
<clipPath id="clip0_197_1115">
<rect width="55.9474" height="50.8613" fill="white" transform="translate(383.154 73.213)"/>
</clipPath>
</defs>
</svg>
