<svg width="536" height="382" viewBox="0 0 536 382" fill="none" xmlns="http://www.w3.org/2000/svg">
<g clip-path="url(#clip0_200_2999)">
<path d="M285 318C395.457 318 485 246.813 485 159C485 71.1867 395.457 0 285 0C174.543 0 85 71.1867 85 159C85 246.813 174.543 318 285 318Z" fill="#FAEFE9"/>
</g>
<g clip-path="url(#clip1_200_2999)">
<path d="M332.348 372.697L409.745 243.682" stroke="#D8D8D8" stroke-width="7" stroke-linecap="round" stroke-linejoin="round"/>
<path d="M495.065 245.565C494.975 248.483 494.02 286.893 490.632 297.428C495.771 304.333 533.063 352.769 533.176 353.843C533.289 354.918 526.963 360.754 525.834 360.754C524.704 360.754 467.498 314.167 464.579 311.119C461.659 308.071 460.32 295.392 460.32 295.392" fill="#1F161E"/>
<path d="M496.697 233.475C496.697 269.464 450.724 304.695 441.648 309.728C439.836 313.506 410.513 374.196 409.818 375.859C407.446 376.136 403.673 375.016 401.86 372.641C402.425 370.266 416.239 300.782 418.052 296.586C419.865 292.39 442.902 249.134 449.471 240.776" fill="#73E5E2"/>
<path d="M531.668 355.099C532.233 355.664 535.909 358.984 536 360.07C536.152 362.032 528.353 368.925 527.664 368.931C526.975 368.937 526.048 368.422 526.144 367.908C526.24 367.393 528.562 363.87 528.675 363.197C528.788 362.524 527.878 360.522 526.884 359.945" fill="#1F161E"/>
<path d="M409.491 375.146C409.186 375.921 407.593 380.581 406.633 381.084C404.888 382 395.496 377.527 395.219 376.893C394.942 376.26 395.05 375.197 395.563 375.095C396.077 374.993 400.223 375.729 400.884 375.576C401.544 375.423 403.024 373.789 403.143 372.646" fill="#1F161E"/>
<path d="M464.437 160.343C452.933 160.343 448.166 178.954 448.166 184.502C448.166 193.284 453.181 227.984 449.471 240.776C454.057 241.528 490.897 238.434 496.697 233.475C496.697 198.385 475.377 160.343 464.437 160.343Z" fill="#55B79D"/>
<path d="M450.052 203.576C456.937 207.569 469.113 208.954 473.71 208.021C462.415 232.412 428.331 241.053 418.329 243.682C416.702 241.149 414.438 236.251 414.257 232.53C418.476 230.523 442.778 221.282 450.052 203.576Z" fill="#F8CDBA"/>
<path d="M453.498 167.633C451.306 167.022 398.969 156.679 397.789 156.385C397.003 157.963 395.134 164.07 395.134 166.338C397.393 167.616 448.166 184.502 448.166 184.502" fill="#F8CDBA"/>
<path d="M397.789 156.385C395.174 155.848 376.005 151.42 375.531 151.323C375.057 151.227 374.656 151.029 374.582 151.323C373.814 154.502 379.569 155.616 382.257 156.385C381.489 158.986 381.201 161.033 383.088 162.04C384.782 162.956 387.798 164.019 395.546 163.527" fill="#F8CDBA"/>
<path d="M450.052 203.576C451.232 200.738 451.916 197.717 452.074 194.647" stroke="#1F161E" stroke-linecap="round" stroke-linejoin="round"/>
<path d="M465.149 171.325C473.66 171.325 477.376 185.565 477.376 191.005C477.414 196.87 476.165 202.671 473.716 207.999" stroke="#1F161E" stroke-linecap="round" stroke-linejoin="round"/>
<path d="M448.166 184.502L438.994 181.42C440.175 172.971 443.586 167.22 444.721 165.778C449.589 166.762 452.972 167.474 453.498 167.61" fill="#55B79D"/>
<path d="M411.987 246.097C407.336 246.097 403.566 243.006 403.566 239.192C403.566 235.379 407.336 232.287 411.987 232.287C416.638 232.287 420.408 235.379 420.408 239.192C420.408 243.006 416.638 246.097 411.987 246.097Z" fill="#F8CDBA"/>
<path d="M410.581 245.565C408.55 245.565 406.904 243.758 406.904 241.528C406.904 239.298 408.55 237.49 410.581 237.49C412.611 237.49 414.257 239.298 414.257 241.528C414.257 243.758 412.611 245.565 410.581 245.565Z" fill="#969696"/>
<path d="M331.219 374.959L282.976 345.971" stroke="#D8D8D8" stroke-width="7" stroke-linecap="round" stroke-linejoin="round"/>
<path d="M331.275 382C327.598 382 324.617 379.015 324.617 375.333C324.617 371.65 327.598 368.665 331.275 368.665C334.953 368.665 337.934 371.65 337.934 375.333C337.934 379.015 334.953 382 331.275 382Z" fill="#969696"/>
<path d="M449.024 178.643C448.601 180.573 448.314 182.531 448.166 184.502C447.121 184.14 442.151 182.5 442.151 182.5C442.151 182.5 446.986 182.121 449.024 178.643Z" fill="#1F161E"/>
<path d="M457.942 226.525C457.31 228.787 453.136 240.662 462.167 240.346C458.264 240.629 451.73 241.183 449.471 240.776C449.629 240.21 450.73 233.899 450.747 231.224C451.815 230.619 457.942 226.525 457.942 226.525Z" fill="#1F161E"/>
<path d="M458.061 165.15C458.869 166.496 466.34 162.142 465.471 160.694L460.06 151.646L452.645 156.102L458.061 165.15Z" fill="#F8CDBA"/>
<path d="M463.308 157.058C462.828 156.255 458.343 154.275 457.208 155.593C458.58 153.93 459.173 151.635 460.077 151.674L463.308 157.058Z" fill="#1F161E"/>
<path d="M450.222 158.03C444.021 158.03 438.994 152.997 438.994 146.788C438.994 140.579 444.021 135.546 450.222 135.546C456.423 135.546 461.45 140.579 461.45 146.788C461.45 152.997 456.423 158.03 450.222 158.03Z" fill="#F8CDBA"/>
<path d="M438.002 150.545C437.946 150.008 438.736 149.485 439.766 149.378C440.796 149.271 441.676 149.62 441.732 150.157C441.787 150.695 440.998 151.217 439.968 151.324C438.937 151.431 438.057 151.083 438.002 150.545Z" fill="#FA9E9F"/>
<path d="M449.716 149.333C449.66 148.795 450.45 148.273 451.48 148.166C452.51 148.058 453.39 148.407 453.446 148.945C453.502 149.482 452.712 150.005 451.682 150.112C450.652 150.219 449.772 149.87 449.716 149.333Z" fill="#FA9E9F"/>
<path d="M444.207 147.863C443.908 148.428 442.338 150.69 444.314 151.323" stroke="#1F161E" stroke-width="0.69" stroke-miterlimit="10" stroke-linecap="round"/>
<path d="M448.318 153.376C448.883 153.303 449.674 152.534 450.063 151.855" stroke="#1F161E" stroke-width="0.69" stroke-miterlimit="10" stroke-linecap="round"/>
<path d="M459.298 147.868C457.932 147.868 456.824 146.759 456.824 145.391C456.824 144.023 457.932 142.914 459.298 142.914C460.664 142.914 461.771 144.023 461.771 145.391C461.771 146.759 460.664 147.868 459.298 147.868Z" fill="#F8CDBA"/>
<path d="M457.632 147.574C457.632 150.865 461.269 153.043 462.494 153.043C462.692 153.069 462.893 153.052 463.083 152.993C463.273 152.933 463.447 152.832 463.594 152.697C463.741 152.562 463.856 152.396 463.931 152.212C464.007 152.027 464.041 151.828 464.03 151.629C464.03 150.249 463.217 149.067 461.512 147.574C461.811 147.06 464.03 144.351 464.03 140.522C464.03 136.479 461.551 133.091 459.891 133.091C459.179 133.136 458.502 133.417 457.966 133.888C457.43 134.36 457.066 134.997 456.931 135.698C456.931 130.049 450.9 126 447.33 126C443.981 126 443.377 127.465 443.377 128.647C443.377 131.248 445.421 134.03 446.201 134.714C444.326 133.329 441.4 131.938 438.859 131.938C437.266 131.938 435.233 132.39 435.233 134.584C435.233 138.616 439 140.946 440.259 141.597C440.748 140.654 441.364 139.782 442.089 139.007C441.858 139.77 442.789 141.156 444.568 141.467C445.551 141.648 457.632 140.019 457.632 147.574Z" fill="#1F161E"/>
</g>
<g clip-path="url(#clip2_200_2999)">
<path d="M353.215 212.561L282.752 170.222L209.257 292.538L279.72 334.877L353.215 212.561Z" fill="#F1F1F1"/>
<path d="M401.61 241.639L353.215 212.561L279.72 334.877L328.116 363.955L401.61 241.639Z" fill="#DBDBDB"/>
<path d="M345.763 213.343L285.56 177.169L282.541 182.193L342.744 218.367L345.763 213.343Z" fill="#DBDBDB"/>
<path d="M273.347 185.874L332.776 221.582C333.341 221.922 333.748 222.471 333.908 223.11C334.068 223.748 333.967 224.424 333.629 224.987L330.726 229.818C330.387 230.382 329.838 230.788 329.199 230.947C328.56 231.105 327.884 231.004 327.319 230.664L267.89 194.956L273.347 185.874Z" fill="white"/>
<path d="M328.64 220.28L328.319 220.087C327.605 219.659 326.681 219.888 326.253 220.6L323.39 225.365C322.962 226.077 323.193 227.002 323.907 227.43L324.228 227.623C324.941 228.052 325.866 227.822 326.293 227.11L329.157 222.345C329.584 221.633 329.353 220.709 328.64 220.28Z" fill="#F1F1F1"/>
<path d="M323.715 217.321L323.394 217.128C322.681 216.7 321.756 216.929 321.328 217.641L318.465 222.406C318.037 223.118 318.269 224.043 318.982 224.471L319.303 224.664C320.016 225.093 320.941 224.863 321.369 224.151L324.232 219.386C324.66 218.674 324.428 217.75 323.715 217.321Z" fill="#F1F1F1"/>
<path d="M318.789 214.361L318.467 214.168C317.754 213.74 316.83 213.969 316.402 214.681L313.539 219.446C313.111 220.158 313.342 221.082 314.055 221.511L314.377 221.704C315.09 222.132 316.015 221.903 316.442 221.191L319.306 216.426C319.733 215.714 319.502 214.79 318.789 214.361Z" fill="#F1F1F1"/>
<path d="M313.864 211.402L313.543 211.209C312.83 210.78 311.905 211.01 311.477 211.722L308.614 216.487C308.186 217.199 308.418 218.123 309.131 218.552L309.452 218.745C310.165 219.173 311.09 218.944 311.518 218.232L314.381 213.467C314.808 212.755 314.577 211.83 313.864 211.402Z" fill="#F1F1F1"/>
<path d="M308.937 208.442L308.616 208.249C307.903 207.82 306.978 208.05 306.55 208.762L303.687 213.527C303.259 214.239 303.491 215.163 304.204 215.592L304.525 215.785C305.238 216.213 306.163 215.983 306.591 215.272L309.454 210.506C309.882 209.795 309.65 208.87 308.937 208.442Z" fill="#F1F1F1"/>
<path d="M304.012 205.483L303.691 205.29C302.978 204.861 302.053 205.091 301.625 205.803L298.762 210.568C298.335 211.28 298.566 212.204 299.279 212.633L299.6 212.826C300.314 213.254 301.238 213.024 301.666 212.313L304.529 207.547C304.957 206.836 304.726 205.911 304.012 205.483Z" fill="#F1F1F1"/>
<path d="M299.086 202.523L298.765 202.33C298.052 201.901 297.127 202.131 296.699 202.843L293.836 207.608C293.408 208.319 293.64 209.244 294.353 209.672L294.674 209.865C295.387 210.294 296.312 210.064 296.74 209.352L299.603 204.587C300.031 203.875 299.799 202.951 299.086 202.523Z" fill="#F1F1F1"/>
<path d="M294.161 199.564L293.84 199.37C293.127 198.942 292.202 199.172 291.774 199.883L288.911 204.649C288.484 205.36 288.715 206.285 289.428 206.713L289.749 206.906C290.462 207.335 291.387 207.105 291.815 206.393L294.678 201.628C295.106 200.916 294.874 199.992 294.161 199.564Z" fill="#F1F1F1"/>
<path d="M289.235 196.603L288.913 196.41C288.2 195.982 287.275 196.211 286.848 196.923L283.984 201.688C283.557 202.4 283.788 203.325 284.501 203.753L284.823 203.946C285.536 204.375 286.46 204.145 286.888 203.433L289.751 198.668C290.179 197.956 289.948 197.032 289.235 196.603Z" fill="#F1F1F1"/>
<path d="M284.31 193.644L283.989 193.451C283.276 193.023 282.351 193.252 281.923 193.964L279.06 198.729C278.632 199.441 278.864 200.365 279.577 200.794L279.898 200.987C280.611 201.415 281.536 201.186 281.964 200.474L284.827 195.709C285.255 194.997 285.023 194.073 284.31 193.644Z" fill="#F1F1F1"/>
<path d="M276.638 187.851L273.347 185.874L267.89 194.956L271.181 196.933L276.638 187.851Z" fill="#DBDBDB"/>
<path d="M277.084 190.617C277.351 190.778 277.698 190.692 277.858 190.425C278.019 190.158 277.932 189.812 277.665 189.651C277.397 189.491 277.051 189.577 276.89 189.843C276.73 190.11 276.817 190.457 277.084 190.617Z" fill="#AE95F8"/>
<path d="M275.759 192.822C276.026 192.983 276.373 192.897 276.533 192.63C276.693 192.363 276.607 192.017 276.339 191.856C276.072 191.695 275.726 191.781 275.565 192.048C275.405 192.315 275.492 192.662 275.759 192.822Z" fill="#7FE3DE"/>
<path d="M274.433 195.029C274.7 195.189 275.047 195.103 275.207 194.837C275.368 194.57 275.281 194.223 275.014 194.063C274.746 193.902 274.4 193.988 274.24 194.255C274.079 194.522 274.166 194.868 274.433 195.029Z" fill="#F7D999"/>
<path d="M265.124 199.56L324.553 235.269C325.117 235.608 325.525 236.158 325.684 236.796C325.844 237.435 325.744 238.11 325.405 238.674L322.502 243.505C322.164 244.069 321.614 244.474 320.976 244.633C320.337 244.792 319.661 244.69 319.096 244.351L259.667 208.642L265.124 199.56Z" fill="white"/>
<path d="M320.416 233.967L320.095 233.774C319.382 233.345 318.457 233.575 318.029 234.287L315.166 239.052C314.738 239.764 314.97 240.688 315.683 241.117L316.004 241.31C316.717 241.738 317.642 241.509 318.07 240.797L320.933 236.032C321.361 235.32 321.129 234.395 320.416 233.967Z" fill="#F1F1F1"/>
<path d="M315.491 231.008L315.17 230.815C314.457 230.386 313.532 230.616 313.104 231.328L310.241 236.093C309.814 236.805 310.045 237.729 310.758 238.158L311.079 238.351C311.793 238.779 312.717 238.55 313.145 237.838L316.008 233.073C316.436 232.361 316.205 231.436 315.491 231.008Z" fill="#F1F1F1"/>
<path d="M310.565 228.048L310.243 227.855C309.53 227.426 308.605 227.656 308.178 228.368L305.315 233.133C304.887 233.845 305.118 234.769 305.831 235.198L306.153 235.391C306.866 235.819 307.791 235.589 308.218 234.878L311.081 230.112C311.509 229.401 311.278 228.476 310.565 228.048Z" fill="#F1F1F1"/>
<path d="M305.64 225.089L305.319 224.896C304.606 224.467 303.681 224.697 303.253 225.409L300.39 230.174C299.963 230.886 300.194 231.81 300.907 232.238L301.228 232.431C301.941 232.86 302.866 232.63 303.294 231.918L306.157 227.153C306.585 226.442 306.353 225.517 305.64 225.089Z" fill="#F1F1F1"/>
<path d="M300.714 222.128L300.392 221.935C299.679 221.507 298.754 221.737 298.327 222.448L295.463 227.214C295.036 227.925 295.267 228.85 295.98 229.278L296.302 229.471C297.015 229.9 297.939 229.67 298.367 228.958L301.23 224.193C301.658 223.481 301.427 222.557 300.714 222.128Z" fill="#F1F1F1"/>
<path d="M295.789 219.169L295.467 218.976C294.754 218.548 293.83 218.778 293.402 219.489L290.539 224.255C290.111 224.966 290.342 225.891 291.055 226.319L291.377 226.512C292.09 226.941 293.015 226.711 293.442 225.999L296.306 221.234C296.733 220.522 296.502 219.598 295.789 219.169Z" fill="#F1F1F1"/>
<path d="M290.862 216.209L290.541 216.016C289.828 215.588 288.903 215.817 288.475 216.529L285.612 221.294C285.184 222.006 285.416 222.931 286.129 223.359L286.45 223.552C287.163 223.981 288.088 223.751 288.516 223.039L291.379 218.274C291.806 217.562 291.575 216.638 290.862 216.209Z" fill="#F1F1F1"/>
<path d="M285.938 213.25L285.616 213.057C284.903 212.629 283.978 212.858 283.551 213.57L280.688 218.335C280.26 219.047 280.491 219.971 281.204 220.4L281.526 220.593C282.239 221.021 283.164 220.792 283.591 220.08L286.454 215.315C286.882 214.603 286.651 213.679 285.938 213.25Z" fill="#F1F1F1"/>
<path d="M281.011 210.29L280.69 210.097C279.977 209.668 279.052 209.898 278.624 210.61L275.761 215.375C275.333 216.087 275.565 217.011 276.278 217.44L276.599 217.633C277.312 218.061 278.237 217.832 278.665 217.12L281.528 212.355C281.955 211.643 281.724 210.718 281.011 210.29Z" fill="#F1F1F1"/>
<path d="M276.086 207.331L275.765 207.138C275.052 206.709 274.127 206.939 273.699 207.651L270.836 212.416C270.408 213.128 270.64 214.052 271.353 214.481L271.674 214.674C272.387 215.102 273.312 214.872 273.74 214.161L276.603 209.396C277.031 208.684 276.799 207.759 276.086 207.331Z" fill="#F1F1F1"/>
<path d="M268.414 201.538L265.124 199.56L259.667 208.642L262.957 210.62L268.414 201.538Z" fill="#DBDBDB"/>
<path d="M268.86 204.304C269.127 204.465 269.474 204.378 269.634 204.112C269.794 203.845 269.708 203.498 269.44 203.338C269.173 203.177 268.827 203.263 268.666 203.53C268.506 203.797 268.593 204.143 268.86 204.304Z" fill="#AE95F8"/>
<path d="M267.535 206.509C267.803 206.669 268.149 206.583 268.309 206.316C268.47 206.05 268.383 205.703 268.116 205.543C267.849 205.382 267.502 205.468 267.342 205.735C267.181 206.002 267.268 206.348 267.535 206.509Z" fill="#7FE3DE"/>
<path d="M266.21 208.715C266.477 208.876 266.823 208.79 266.984 208.523C267.144 208.256 267.057 207.91 266.79 207.749C266.523 207.589 266.176 207.675 266.016 207.942C265.856 208.208 265.942 208.555 266.21 208.715Z" fill="#F7D999"/>
<path d="M256.9 213.247L316.329 248.956C316.894 249.295 317.301 249.844 317.461 250.483C317.621 251.122 317.52 251.797 317.181 252.361L314.279 257.192C313.94 257.755 313.391 258.161 312.752 258.32C312.113 258.478 311.437 258.377 310.872 258.038L251.443 222.329L256.9 213.247Z" fill="white"/>
<path d="M312.193 247.654L311.871 247.461C311.158 247.032 310.233 247.262 309.806 247.974L306.942 252.739C306.515 253.45 306.746 254.375 307.459 254.803L307.781 254.996C308.494 255.425 309.418 255.195 309.846 254.483L312.709 249.718C313.137 249.006 312.906 248.082 312.193 247.654Z" fill="#F1F1F1"/>
<path d="M307.268 244.695L306.946 244.502C306.233 244.073 305.309 244.303 304.881 245.015L302.018 249.78C301.59 250.491 301.821 251.416 302.534 251.844L302.856 252.037C303.569 252.466 304.494 252.236 304.921 251.524L307.785 246.759C308.212 246.047 307.981 245.123 307.268 244.695Z" fill="#F1F1F1"/>
<path d="M302.341 241.734L302.02 241.541C301.307 241.113 300.382 241.343 299.954 242.054L297.091 246.819C296.663 247.531 296.895 248.456 297.608 248.884L297.929 249.077C298.642 249.506 299.567 249.276 299.995 248.564L302.858 243.799C303.286 243.087 303.054 242.163 302.341 241.734Z" fill="#F1F1F1"/>
<path d="M297.416 238.775L297.095 238.582C296.382 238.154 295.457 238.383 295.029 239.095L292.166 243.86C291.738 244.572 291.97 245.497 292.683 245.925L293.004 246.118C293.717 246.547 294.642 246.317 295.07 245.605L297.933 240.84C298.361 240.128 298.129 239.204 297.416 238.775Z" fill="#F1F1F1"/>
<path d="M292.49 235.815L292.169 235.622C291.456 235.194 290.531 235.423 290.103 236.135L287.24 240.9C286.812 241.612 287.044 242.536 287.757 242.965L288.078 243.158C288.791 243.586 289.716 243.357 290.144 242.645L293.007 237.88C293.434 237.168 293.203 236.244 292.49 235.815Z" fill="#F1F1F1"/>
<path d="M287.565 232.856L287.244 232.663C286.531 232.235 285.606 232.464 285.178 233.176L282.315 237.941C281.887 238.653 282.119 239.577 282.832 240.006L283.153 240.199C283.866 240.627 284.791 240.398 285.219 239.686L288.082 234.921C288.51 234.209 288.278 233.285 287.565 232.856Z" fill="#F1F1F1"/>
<path d="M282.638 229.896L282.317 229.703C281.604 229.274 280.679 229.504 280.251 230.216L277.388 234.981C276.961 235.693 277.192 236.617 277.905 237.046L278.226 237.239C278.939 237.667 279.864 237.438 280.292 236.726L283.155 231.961C283.583 231.249 283.352 230.324 282.638 229.896Z" fill="#F1F1F1"/>
<path d="M277.714 226.937L277.392 226.744C276.679 226.315 275.754 226.545 275.327 227.257L272.463 232.022C272.036 232.734 272.267 233.658 272.98 234.087L273.302 234.28C274.015 234.708 274.939 234.478 275.367 233.767L278.23 229.001C278.658 228.29 278.427 227.365 277.714 226.937Z" fill="#F1F1F1"/>
<path d="M272.787 223.977L272.466 223.784C271.753 223.355 270.828 223.585 270.4 224.297L267.537 229.062C267.11 229.773 267.341 230.698 268.054 231.126L268.375 231.319C269.088 231.748 270.013 231.518 270.441 230.806L273.304 226.041C273.732 225.329 273.5 224.405 272.787 223.977Z" fill="#F1F1F1"/>
<path d="M267.863 221.017L267.541 220.824C266.828 220.396 265.903 220.626 265.476 221.337L262.612 226.103C262.185 226.814 262.416 227.739 263.129 228.167L263.451 228.36C264.164 228.789 265.088 228.559 265.516 227.847L268.379 223.082C268.807 222.37 268.576 221.446 267.863 221.017Z" fill="#F1F1F1"/>
<path d="M260.191 215.224L256.9 213.247L251.443 222.329L254.734 224.306L260.191 215.224Z" fill="#DBDBDB"/>
<path d="M260.636 217.991C260.904 218.151 261.25 218.065 261.411 217.798C261.571 217.531 261.484 217.185 261.217 217.024C260.95 216.864 260.603 216.95 260.443 217.217C260.282 217.484 260.369 217.83 260.636 217.991Z" fill="#AE95F8"/>
<path d="M259.312 220.195C259.579 220.356 259.926 220.27 260.086 220.003C260.246 219.736 260.159 219.39 259.892 219.229C259.625 219.069 259.278 219.155 259.118 219.422C258.958 219.688 259.044 220.035 259.312 220.195Z" fill="#7FE3DE"/>
<path d="M257.985 222.402C258.253 222.563 258.599 222.477 258.76 222.21C258.92 221.943 258.833 221.597 258.566 221.436C258.299 221.275 257.952 221.361 257.792 221.628C257.631 221.895 257.718 222.241 257.985 222.402Z" fill="#F7D999"/>
<path d="M248.676 226.934L308.105 262.642C308.67 262.982 309.077 263.531 309.237 264.17C309.397 264.808 309.296 265.484 308.958 266.047L306.055 270.878C305.716 271.442 305.167 271.848 304.528 272.006C303.889 272.165 303.213 272.064 302.648 271.724L243.219 236.016L248.676 226.934Z" fill="white"/>
<path d="M303.968 261.34L303.647 261.147C302.934 260.719 302.009 260.948 301.582 261.66L298.718 266.425C298.291 267.137 298.522 268.062 299.235 268.49L299.556 268.683C300.27 269.112 301.194 268.882 301.622 268.17L304.485 263.405C304.913 262.693 304.682 261.769 303.968 261.34Z" fill="#F1F1F1"/>
<path d="M299.044 258.381L298.723 258.188C298.01 257.76 297.085 257.989 296.657 258.701L293.794 263.466C293.366 264.178 293.598 265.103 294.311 265.531L294.632 265.724C295.345 266.153 296.27 265.923 296.698 265.211L299.561 260.446C299.989 259.734 299.757 258.81 299.044 258.381Z" fill="#F1F1F1"/>
<path d="M294.117 255.421L293.796 255.228C293.083 254.799 292.158 255.029 291.73 255.741L288.867 260.506C288.44 261.218 288.671 262.142 289.384 262.571L289.705 262.764C290.418 263.192 291.343 262.963 291.771 262.251L294.634 257.486C295.062 256.774 294.831 255.85 294.117 255.421Z" fill="#F1F1F1"/>
<path d="M289.193 252.462L288.871 252.269C288.158 251.84 287.233 252.07 286.806 252.782L283.942 257.547C283.515 258.259 283.746 259.183 284.459 259.612L284.781 259.805C285.494 260.233 286.418 260.004 286.846 259.292L289.709 254.527C290.137 253.815 289.906 252.89 289.193 252.462Z" fill="#F1F1F1"/>
<path d="M284.266 249.502L283.945 249.309C283.231 248.88 282.307 249.11 281.879 249.822L279.016 254.587C278.588 255.299 278.819 256.223 279.532 256.651L279.854 256.845C280.567 257.273 281.492 257.043 281.919 256.332L284.783 251.566C285.21 250.855 284.979 249.93 284.266 249.502Z" fill="#F1F1F1"/>
<path d="M279.342 246.543L279.02 246.35C278.307 245.921 277.382 246.151 276.955 246.863L274.091 251.628C273.664 252.34 273.895 253.264 274.608 253.693L274.93 253.886C275.643 254.314 276.567 254.084 276.995 253.373L279.858 248.607C280.286 247.896 280.055 246.971 279.342 246.543Z" fill="#F1F1F1"/>
<path d="M274.415 243.583L274.093 243.389C273.38 242.961 272.456 243.191 272.028 243.903L269.165 248.668C268.737 249.379 268.968 250.304 269.681 250.732L270.003 250.925C270.716 251.354 271.641 251.124 272.068 250.412L274.932 245.647C275.359 244.935 275.128 244.011 274.415 243.583Z" fill="#F1F1F1"/>
<path d="M269.49 240.623L269.169 240.43C268.456 240.002 267.531 240.232 267.103 240.943L264.24 245.709C263.812 246.42 264.044 247.345 264.757 247.773L265.078 247.966C265.791 248.395 266.716 248.165 267.144 247.453L270.007 242.688C270.434 241.976 270.203 241.052 269.49 240.623Z" fill="#F1F1F1"/>
<path d="M264.563 237.663L264.242 237.47C263.529 237.042 262.604 237.271 262.176 237.983L259.313 242.748C258.885 243.46 259.117 244.385 259.83 244.813L260.151 245.006C260.864 245.435 261.789 245.205 262.217 244.493L265.08 239.728C265.508 239.016 265.276 238.092 264.563 237.663Z" fill="#F1F1F1"/>
<path d="M259.639 234.704L259.318 234.511C258.604 234.083 257.68 234.312 257.252 235.024L254.389 239.789C253.961 240.501 254.192 241.425 254.906 241.854L255.227 242.047C255.94 242.475 256.865 242.246 257.292 241.534L260.156 236.769C260.583 236.057 260.352 235.133 259.639 234.704Z" fill="#F1F1F1"/>
<path d="M251.967 228.911L248.676 226.934L243.219 236.016L246.51 237.993L251.967 228.911Z" fill="#DBDBDB"/>
<path d="M252.413 231.677C252.68 231.838 253.027 231.752 253.187 231.485C253.347 231.218 253.261 230.872 252.993 230.711C252.726 230.55 252.379 230.637 252.219 230.903C252.059 231.17 252.145 231.517 252.413 231.677Z" fill="#AE95F8"/>
<path d="M251.087 233.884C251.354 234.045 251.7 233.959 251.861 233.692C252.021 233.425 251.934 233.078 251.667 232.918C251.4 232.757 251.053 232.843 250.893 233.11C250.733 233.377 250.819 233.723 251.087 233.884Z" fill="#7FE3DE"/>
<path d="M249.762 236.089C250.029 236.249 250.376 236.163 250.536 235.896C250.696 235.63 250.61 235.283 250.342 235.123C250.075 234.962 249.728 235.048 249.568 235.315C249.408 235.582 249.495 235.928 249.762 236.089Z" fill="#F7D999"/>
<path d="M240.452 240.62L299.881 276.329C300.446 276.668 300.853 277.218 301.013 277.856C301.173 278.495 301.072 279.17 300.734 279.734L297.831 284.565C297.492 285.129 296.943 285.534 296.304 285.693C295.665 285.852 294.989 285.75 294.424 285.411L234.995 249.702L240.452 240.62Z" fill="white"/>
<path d="M295.745 275.027L295.424 274.834C294.71 274.405 293.786 274.635 293.358 275.347L290.495 280.112C290.067 280.824 290.298 281.748 291.011 282.177L291.333 282.37C292.046 282.798 292.971 282.568 293.398 281.857L296.262 277.092C296.689 276.38 296.458 275.455 295.745 275.027Z" fill="#F1F1F1"/>
<path d="M290.82 272.068L290.499 271.875C289.786 271.446 288.861 271.676 288.433 272.388L285.57 277.153C285.142 277.865 285.374 278.789 286.087 279.218L286.408 279.411C287.121 279.839 288.046 279.61 288.474 278.898L291.337 274.133C291.765 273.421 291.533 272.496 290.82 272.068Z" fill="#F1F1F1"/>
<path d="M285.894 269.108L285.572 268.915C284.859 268.486 283.935 268.716 283.507 269.428L280.644 274.193C280.216 274.905 280.447 275.829 281.16 276.257L281.482 276.451C282.195 276.879 283.12 276.649 283.547 275.937L286.411 271.172C286.838 270.461 286.607 269.536 285.894 269.108Z" fill="#F1F1F1"/>
<path d="M280.969 266.149L280.648 265.956C279.935 265.527 279.01 265.757 278.582 266.469L275.719 271.234C275.291 271.945 275.523 272.87 276.236 273.298L276.557 273.491C277.27 273.92 278.195 273.69 278.623 272.978L281.486 268.213C281.913 267.501 281.682 266.577 280.969 266.149Z" fill="#F1F1F1"/>
<path d="M276.042 263.188L275.721 262.995C275.008 262.567 274.083 262.797 273.655 263.508L270.792 268.273C270.364 268.985 270.596 269.91 271.309 270.338L271.63 270.531C272.343 270.96 273.268 270.73 273.696 270.018L276.559 265.253C276.987 264.541 276.755 263.617 276.042 263.188Z" fill="#F1F1F1"/>
<path d="M271.117 260.229L270.796 260.036C270.083 259.608 269.158 259.838 268.73 260.549L265.867 265.314C265.44 266.026 265.671 266.951 266.384 267.379L266.705 267.572C267.418 268.001 268.343 267.771 268.771 267.059L271.634 262.294C272.062 261.582 271.831 260.658 271.117 260.229Z" fill="#F1F1F1"/>
<path d="M266.191 257.269L265.87 257.076C265.157 256.648 264.232 256.877 263.804 257.589L260.941 262.354C260.513 263.066 260.745 263.99 261.458 264.419L261.779 264.612C262.492 265.04 263.417 264.811 263.845 264.099L266.708 259.334C267.136 258.622 266.904 257.698 266.191 257.269Z" fill="#F1F1F1"/>
<path d="M261.266 254.31L260.945 254.117C260.232 253.689 259.307 253.918 258.879 254.63L256.016 259.395C255.589 260.107 255.82 261.031 256.533 261.46L256.854 261.653C257.567 262.081 258.492 261.852 258.92 261.14L261.783 256.375C262.211 255.663 261.979 254.739 261.266 254.31Z" fill="#F1F1F1"/>
<path d="M256.34 251.35L256.018 251.157C255.305 250.728 254.38 250.958 253.953 251.67L251.089 256.435C250.662 257.147 250.893 258.071 251.606 258.5L251.928 258.693C252.641 259.121 253.565 258.891 253.993 258.18L256.856 253.415C257.284 252.703 257.053 251.778 256.34 251.35Z" fill="#F1F1F1"/>
<path d="M251.415 248.391L251.093 248.198C250.38 247.769 249.456 247.999 249.028 248.711L246.165 253.476C245.737 254.188 245.968 255.112 246.681 255.541L247.003 255.734C247.716 256.162 248.641 255.933 249.068 255.221L251.932 250.456C252.359 249.744 252.128 248.819 251.415 248.391Z" fill="#F1F1F1"/>
<path d="M243.743 242.598L240.452 240.62L234.995 249.702L238.286 251.68L243.743 242.598Z" fill="#DBDBDB"/>
<path d="M244.189 245.364C244.456 245.524 244.803 245.438 244.963 245.172C245.124 244.905 245.037 244.558 244.77 244.398C244.502 244.237 244.156 244.323 243.995 244.59C243.835 244.857 243.922 245.203 244.189 245.364Z" fill="#AE95F8"/>
<path d="M242.863 247.571C243.13 247.731 243.477 247.645 243.637 247.378C243.797 247.112 243.711 246.765 243.443 246.605C243.176 246.444 242.83 246.53 242.669 246.797C242.509 247.064 242.596 247.41 242.863 247.571Z" fill="#7FE3DE"/>
<path d="M241.538 249.775C241.805 249.936 242.152 249.85 242.312 249.583C242.473 249.316 242.386 248.97 242.119 248.809C241.851 248.649 241.505 248.735 241.345 249.002C241.184 249.268 241.271 249.615 241.538 249.775Z" fill="#F7D999"/>
<path d="M232.229 254.307L291.658 290.016C292.222 290.355 292.63 290.904 292.789 291.543C292.949 292.182 292.849 292.857 292.51 293.421L289.607 298.251C289.269 298.815 288.719 299.221 288.081 299.38C287.442 299.538 286.765 299.437 286.201 299.098L226.772 263.389L232.229 254.307Z" fill="white"/>
<path d="M287.521 288.714L287.2 288.52C286.487 288.092 285.562 288.322 285.134 289.033L282.271 293.799C281.843 294.51 282.075 295.435 282.788 295.863L283.109 296.056C283.822 296.485 284.747 296.255 285.175 295.543L288.038 290.778C288.466 290.066 288.234 289.142 287.521 288.714Z" fill="#F1F1F1"/>
<path d="M282.596 285.755L282.275 285.561C281.562 285.133 280.637 285.363 280.209 286.075L277.346 290.84C276.919 291.551 277.15 292.476 277.863 292.904L278.184 293.097C278.897 293.526 279.822 293.296 280.25 292.584L283.113 287.819C283.541 287.107 283.31 286.183 282.596 285.755Z" fill="#F1F1F1"/>
<path d="M277.67 282.794L277.348 282.601C276.635 282.173 275.71 282.402 275.283 283.114L272.42 287.879C271.992 288.591 272.223 289.516 272.936 289.944L273.258 290.137C273.971 290.566 274.896 290.336 275.323 289.624L278.186 284.859C278.614 284.147 278.383 283.223 277.67 282.794Z" fill="#F1F1F1"/>
<path d="M272.745 279.835L272.424 279.642C271.711 279.214 270.786 279.443 270.358 280.155L267.495 284.92C267.068 285.632 267.299 286.557 268.012 286.985L268.333 287.178C269.046 287.607 269.971 287.377 270.399 286.665L273.262 281.9C273.69 281.188 273.458 280.264 272.745 279.835Z" fill="#F1F1F1"/>
<path d="M267.819 276.875L267.497 276.682C266.784 276.253 265.859 276.483 265.432 277.195L262.568 281.96C262.141 282.672 262.372 283.596 263.085 284.025L263.407 284.218C264.12 284.646 265.044 284.417 265.472 283.705L268.335 278.94C268.763 278.228 268.532 277.304 267.819 276.875Z" fill="#F1F1F1"/>
<path d="M262.894 273.916L262.572 273.723C261.859 273.294 260.935 273.524 260.507 274.236L257.644 279.001C257.216 279.713 257.447 280.637 258.16 281.066L258.482 281.259C259.195 281.687 260.12 281.458 260.547 280.746L263.411 275.981C263.838 275.269 263.607 274.345 262.894 273.916Z" fill="#F1F1F1"/>
<path d="M257.967 270.956L257.646 270.763C256.933 270.334 256.008 270.564 255.58 271.276L252.717 276.041C252.289 276.753 252.521 277.677 253.234 278.106L253.555 278.299C254.268 278.727 255.193 278.497 255.621 277.786L258.484 273.021C258.911 272.309 258.68 271.384 257.967 270.956Z" fill="#F1F1F1"/>
<path d="M253.043 267.997L252.721 267.804C252.008 267.375 251.083 267.605 250.656 268.317L247.793 273.082C247.365 273.794 247.596 274.718 248.309 275.146L248.631 275.34C249.344 275.768 250.269 275.538 250.696 274.827L253.559 270.061C253.987 269.35 253.756 268.425 253.043 267.997Z" fill="#F1F1F1"/>
<path d="M248.116 265.037L247.795 264.843C247.081 264.415 246.157 264.645 245.729 265.356L242.866 270.122C242.438 270.833 242.669 271.758 243.383 272.186L243.704 272.379C244.417 272.808 245.342 272.578 245.77 271.866L248.633 267.101C249.06 266.389 248.829 265.465 248.116 265.037Z" fill="#F1F1F1"/>
<path d="M243.191 262.078L242.87 261.884C242.157 261.456 241.232 261.686 240.804 262.398L237.941 267.163C237.513 267.874 237.745 268.799 238.458 269.227L238.779 269.42C239.492 269.849 240.417 269.619 240.845 268.907L243.708 264.142C244.136 263.43 243.904 262.506 243.191 262.078Z" fill="#F1F1F1"/>
<path d="M235.519 256.284L232.229 254.307L226.772 263.389L230.062 265.366L235.519 256.284Z" fill="#DBDBDB"/>
<path d="M235.965 259.051C236.232 259.211 236.579 259.125 236.739 258.858C236.899 258.591 236.813 258.245 236.545 258.084C236.278 257.924 235.932 258.01 235.771 258.277C235.611 258.543 235.698 258.89 235.965 259.051Z" fill="#AE95F8"/>
<path d="M234.639 261.257C234.907 261.418 235.253 261.332 235.413 261.065C235.574 260.798 235.487 260.452 235.22 260.291C234.953 260.131 234.606 260.217 234.446 260.483C234.285 260.75 234.372 261.097 234.639 261.257Z" fill="#7FE3DE"/>
<path d="M233.315 263.462C233.582 263.623 233.928 263.537 234.089 263.27C234.249 263.003 234.162 262.656 233.895 262.496C233.628 262.335 233.281 262.421 233.121 262.688C232.961 262.955 233.047 263.301 233.315 263.462Z" fill="#F7D999"/>
<path d="M224.002 267.997L283.432 303.706C283.996 304.045 284.403 304.595 284.563 305.233C284.723 305.872 284.623 306.547 284.284 307.111L281.381 311.942C281.042 312.506 280.493 312.912 279.854 313.07C279.216 313.229 278.539 313.127 277.975 312.788L218.545 277.079L224.002 267.997Z" fill="white"/>
<path d="M279.298 302.4L278.976 302.207C278.263 301.779 277.338 302.008 276.911 302.72L274.047 307.485C273.62 308.197 273.851 309.122 274.564 309.55L274.886 309.743C275.599 310.172 276.523 309.942 276.951 309.23L279.814 304.465C280.242 303.753 280.011 302.829 279.298 302.4Z" fill="#F1F1F1"/>
<path d="M274.373 299.441L274.051 299.248C273.338 298.82 272.414 299.049 271.986 299.761L269.123 304.526C268.695 305.238 268.926 306.162 269.639 306.591L269.961 306.784C270.674 307.212 271.599 306.983 272.026 306.271L274.89 301.506C275.317 300.794 275.086 299.87 274.373 299.441Z" fill="#F1F1F1"/>
<path d="M269.446 296.481L269.125 296.288C268.412 295.859 267.487 296.089 267.059 296.801L264.196 301.566C263.768 302.278 264 303.202 264.713 303.631L265.034 303.824C265.747 304.252 266.672 304.023 267.1 303.311L269.963 298.546C270.39 297.834 270.159 296.909 269.446 296.481Z" fill="#F1F1F1"/>
<path d="M264.521 293.522L264.2 293.329C263.487 292.9 262.562 293.13 262.134 293.842L259.271 298.607C258.843 299.319 259.075 300.243 259.788 300.672L260.109 300.865C260.822 301.293 261.747 301.063 262.175 300.352L265.038 295.587C265.466 294.875 265.234 293.95 264.521 293.522Z" fill="#F1F1F1"/>
<path d="M259.595 290.562L259.274 290.369C258.561 289.94 257.636 290.17 257.208 290.882L254.345 295.647C253.917 296.359 254.148 297.283 254.862 297.711L255.183 297.905C255.896 298.333 256.821 298.103 257.249 297.391L260.112 292.626C260.539 291.915 260.308 290.99 259.595 290.562Z" fill="#F1F1F1"/>
<path d="M254.67 287.603L254.349 287.41C253.636 286.981 252.711 287.211 252.283 287.923L249.42 292.688C248.992 293.4 249.224 294.324 249.937 294.752L250.258 294.946C250.971 295.374 251.896 295.144 252.324 294.432L255.187 289.667C255.615 288.956 255.383 288.031 254.67 287.603Z" fill="#F1F1F1"/>
<path d="M249.743 284.642L249.422 284.449C248.709 284.021 247.784 284.251 247.356 284.962L244.493 289.728C244.066 290.439 244.297 291.364 245.01 291.792L245.331 291.985C246.044 292.414 246.969 292.184 247.397 291.472L250.26 286.707C250.688 285.995 250.456 285.071 249.743 284.642Z" fill="#F1F1F1"/>
<path d="M244.819 281.683L244.497 281.49C243.784 281.062 242.859 281.292 242.432 282.003L239.568 286.768C239.141 287.48 239.372 288.405 240.085 288.833L240.407 289.026C241.12 289.455 242.044 289.225 242.472 288.513L245.335 283.748C245.763 283.036 245.532 282.112 244.819 281.683Z" fill="#F1F1F1"/>
<path d="M239.892 278.723L239.571 278.53C238.858 278.102 237.933 278.331 237.505 279.043L234.642 283.808C234.214 284.52 234.446 285.444 235.159 285.873L235.48 286.066C236.193 286.494 237.118 286.265 237.546 285.553L240.409 280.788C240.837 280.076 240.605 279.152 239.892 278.723Z" fill="#F1F1F1"/>
<path d="M234.968 275.764L234.646 275.571C233.933 275.143 233.008 275.372 232.581 276.084L229.717 280.849C229.29 281.561 229.521 282.485 230.234 282.914L230.555 283.107C231.269 283.535 232.193 283.306 232.621 282.594L235.484 277.829C235.912 277.117 235.681 276.193 234.968 275.764Z" fill="#F1F1F1"/>
<path d="M227.296 269.971L224.005 267.994L218.548 277.076L221.839 279.053L227.296 269.971Z" fill="#DBDBDB"/>
<path d="M227.741 272.737C228.009 272.898 228.355 272.812 228.516 272.545C228.676 272.278 228.589 271.932 228.322 271.771C228.055 271.61 227.708 271.697 227.548 271.963C227.387 272.23 227.474 272.577 227.741 272.737Z" fill="#AE95F8"/>
<path d="M226.415 274.944C226.682 275.105 227.029 275.018 227.189 274.752C227.35 274.485 227.263 274.138 226.996 273.978C226.728 273.817 226.382 273.903 226.221 274.17C226.061 274.437 226.148 274.783 226.415 274.944Z" fill="#7FE3DE"/>
<path d="M225.09 277.149C225.358 277.309 225.704 277.223 225.865 276.956C226.025 276.69 225.938 276.343 225.671 276.183C225.404 276.022 225.057 276.108 224.897 276.375C224.736 276.642 224.823 276.988 225.09 277.149Z" fill="#F7D999"/>
</g>
<g clip-path="url(#clip3_200_2999)">
<rect width="202" height="133" transform="translate(0 8)" fill="white"/>
<path d="M201.809 8.19055H0.19043V140.809H201.809V8.19055Z" stroke="black" stroke-miterlimit="10"/>
<path d="M0.19043 15.2407H201.809" stroke="black" stroke-miterlimit="10"/>
<path d="M75.4643 27.0544H14.8643V87.6476H75.4643V27.0544Z" stroke="black" stroke-miterlimit="10"/>
<path d="M87.0884 32.3896H179.703" stroke="black" stroke-miterlimit="10"/>
<path d="M87.0884 41.5358H179.703" stroke="black" stroke-miterlimit="10"/>
<path d="M87.0884 50.682H179.703" stroke="black" stroke-miterlimit="10"/>
<path d="M87.0884 59.8281H179.703" stroke="black" stroke-miterlimit="10"/>
<path opacity="0.44" d="M45.1642 43.0602L28.6611 71.6418H61.6672L45.1642 43.0602Z" fill="#50B89D"/>
<path d="M4.57349 13.5257C5.52071 13.5257 6.28859 12.758 6.28859 11.8108C6.28859 10.8637 5.52071 10.0959 4.57349 10.0959C3.62627 10.0959 2.8584 10.8637 2.8584 11.8108C2.8584 12.758 3.62627 13.5257 4.57349 13.5257Z" fill="#AB8DE5"/>
<path d="M10.4812 13.5257C11.4284 13.5257 12.1963 12.758 12.1963 11.8108C12.1963 10.8637 11.4284 10.0959 10.4812 10.0959C9.53399 10.0959 8.76611 10.8637 8.76611 11.8108C8.76611 12.758 9.53399 13.5257 10.4812 13.5257Z" fill="#73E5E2"/>
<path d="M16.3884 13.5257C17.3357 13.5257 18.1035 12.758 18.1035 11.8108C18.1035 10.8637 17.3357 10.0959 16.3884 10.0959C15.4412 10.0959 14.6733 10.8637 14.6733 11.8108C14.6733 12.758 15.4412 13.5257 16.3884 13.5257Z" fill="#50B89D"/>
</g>
<g clip-path="url(#clip4_200_2999)">
<path d="M277 77L83 77L83 165L277 165L277 77Z" fill="#78E5E1"/>
<path d="M126.549 149.009C141.895 149.009 154.336 136.469 154.336 121C154.336 105.531 141.895 92.9907 126.549 92.9907C111.203 92.9907 98.7627 105.531 98.7627 121C98.7627 136.469 111.203 149.009 126.549 149.009Z" fill="white"/>
<path d="M122.81 145.813C122.435 147.754 111.799 145.813 112.203 143.731L114.727 130.733L125.326 132.815L122.81 145.813Z" fill="#F8CDBA"/>
<path d="M113.22 138.496C113.444 137.339 117.868 133.067 119.759 134.135C117.437 132.758 115.756 130.291 114.719 130.733L113.22 138.496Z" fill="#1F161E"/>
<path d="M126.222 137.881C133.974 137.881 140.258 131.546 140.258 123.732C140.258 115.917 133.974 109.582 126.222 109.582C118.47 109.582 112.185 115.917 112.185 123.732C112.185 131.546 118.47 137.881 126.222 137.881Z" fill="#F8CDBA"/>
<path d="M141.497 128.464C141.566 127.79 140.579 127.133 139.293 126.999C138.006 126.864 136.907 127.302 136.837 127.976C136.768 128.651 137.754 129.307 139.041 129.442C140.328 129.577 141.427 129.139 141.497 128.464Z" fill="#FA9E9F"/>
<path d="M126.853 126.929C126.922 126.255 125.935 125.598 124.649 125.464C123.362 125.329 122.263 125.767 122.193 126.441C122.124 127.116 123.11 127.772 124.397 127.907C125.684 128.042 126.783 127.604 126.853 126.929Z" fill="#FA9E9F"/>
<path d="M133.745 125.09C134.117 125.763 136.081 128.627 133.612 129.443" stroke="#1F161E" stroke-width="0.69" stroke-miterlimit="10" stroke-linecap="round"/>
<path d="M128.6 132.024C127.903 131.931 126.91 130.963 126.419 130.114" stroke="#1F161E" stroke-width="0.69" stroke-miterlimit="10" stroke-linecap="round"/>
<path d="M114.876 125.088C116.583 125.088 117.966 123.694 117.966 121.974C117.966 120.254 116.583 118.859 114.876 118.859C113.17 118.859 111.787 120.254 111.787 121.974C111.787 123.694 113.17 125.088 114.876 125.088Z" fill="#F8CDBA"/>
<path d="M116.964 124.722C116.964 128.867 112.413 131.603 110.884 131.603C109.188 131.603 108.964 130.366 108.964 129.829C108.964 128.091 109.974 126.602 112.11 124.722C111.738 124.076 108.964 120.664 108.964 115.85C108.964 110.758 112.06 106.498 114.137 106.498C116.348 106.498 117.817 108.808 117.817 109.776C117.817 102.667 125.379 97.5741 129.869 97.5741C134.057 97.5741 134.776 99.4074 134.776 100.907C134.776 104.178 132.216 107.68 131.256 108.539C133.598 106.8 137.256 105.046 140.428 105.046C142.421 105.046 144.961 105.612 144.961 108.379C144.961 113.449 140.25 116.384 138.676 117.205C137.886 115.632 137.06 114.744 136.387 113.96C136.678 114.917 135.514 116.659 133.293 117.052C132.066 117.268 116.964 115.219 116.964 124.722Z" fill="#1F161E"/>
<path d="M168.683 104.194L262.652 104.194" stroke="white" stroke-width="4" stroke-miterlimit="10" stroke-linecap="round"/>
<path d="M168.683 115.398L262.652 115.398" stroke="white" stroke-width="4" stroke-miterlimit="10" stroke-linecap="round"/>
<path d="M168.683 126.602L262.652 126.602" stroke="white" stroke-width="4" stroke-miterlimit="10" stroke-linecap="round"/>
<path d="M168.683 137.806L262.652 137.806" stroke="white" stroke-width="4" stroke-miterlimit="10" stroke-linecap="round"/>
</g>
<defs>
<clipPath id="clip0_200_2999">
<rect width="400" height="318" fill="white" transform="translate(85)"/>
</clipPath>
<clipPath id="clip1_200_2999">
<rect width="255" height="256" fill="white" transform="matrix(-1 0 0 1 536 126)"/>
</clipPath>
<clipPath id="clip2_200_2999">
<rect width="138.664" height="142.698" fill="white" transform="translate(282.752 170.222) rotate(31)"/>
</clipPath>
<clipPath id="clip3_200_2999">
<rect width="202" height="133" fill="white" transform="translate(0 8)"/>
</clipPath>
<clipPath id="clip4_200_2999">
<rect width="194" height="88" fill="white" transform="translate(83 77)"/>
</clipPath>
</defs>
</svg>
