<?xml version="1.0" encoding="UTF-8" standalone="no"?> <svg viewBox="-50 1 511 511.99999" xmlns="http://www.w3.org/2000/svg"><path d="m270.566406 242.003906c-6.832031 0-13.542968.527344-20.09375 1.539063l.007813-20.539063h-1.007813l1-109.226562.027344-63.75c0-22.09375-53.730469-40.003906-120-40.003906s-120 17.910156-120 40.003906v311.960937c0 22.089844 53.742188 39.996094 120.03125 39.996094 4.539062 0 9.011719-.082031 13.421875-.25 13.417969 57.292969 64.746094 99.996094 126.09375 100.238281 71.355469.28125 130.058594-57.714844 130.550781-129.070312.496094-72.210938-57.90625-130.898438-130.03125-130.898438zm-106.015625 32.359375c-2.402343.238281-4.832031.449219-7.292969.636719 2.460938-.1875 4.890626-.398438 7.292969-.636719zm0 0" fill="#ffe781"/><path d="m130.484375 206.007812c-5.46875 0-9.917969 4.398438-9.996094 9.855469v.140625c0 5.519532 4.476563 10 9.996094 10s10-4.480468 10-10c0-.050781 0-.089844 0-.140625-.078125-5.457031-4.53125-9.855469-10-9.855469zm0 0"/><path d="m130.5 0c-64.601562 0-130 17.175781-130 50v312c0 32.824219 65.398438 50 130 50 1.949219 0 3.882812-.019531 5.792969-.046875 17.617187 59.078125 72.066406 100.046875 134.207031 100.046875 77.195312 0 140-62.804688 140-140s-62.804688-140-140-140c-3.355469 0-6.722656.132812-10.085938.371094.007813-6.570313.050782-105.675782.054688-118.554688.011719-.273437.03125-.550781.03125-.816406 0-.195312-.019531-.382812-.03125-.574219l.03125-62.421875s0 0 0-.003906c0-32.824219-65.398438-50-130-50zm6.769531 328.925781c-2.296875.042969-4.566406.066407-6.785156.066407-31 0-60.007813-3.976563-81.679687-11.203126-22.390626-7.460937-28.308594-15.558593-28.308594-18.792968v-35.054688c24.285156 14.554688 67.308594 22.054688 109.988281 22.054688 10.355469 0 20.652344-.4375 30.617187-1.285156-10.507812 13.183593-18.640624 28.214843-23.832031 44.214843zm47.175781-67.371093c-16.496093 2.894531-35.085937 4.4375-53.976562 4.4375-30.996094 0-60-3.976563-81.667969-11.203126-22.386719-7.460937-28.304687-15.554687-28.304687-18.789062v-31.964844c5.585937 3.324219 11.554687 5.988282 17.683594 8.230469 16.308593 6.113281 46.171874 11.46875 52.375 11.46875 5.007812 0 9.328124-3.757813 9.917968-8.851563.632813-5.488281-3.300781-10.445312-8.785156-11.078124-3.199219-.523438-38.445312-4.058594-59.9375-16.347657-8.558594-4.859375-9.605469-7.785156-11.140625-10.566406-.261719-1.414063-.011719 1.386719-.109375-35.925781 24.277344 14.554687 67.296875 22.050781 109.972656 22.050781 32.675782 0 63.640625-4.246094 87.1875-11.960937 9.460938-3.097657 17.003906-6.480469 22.84375-9.976563-.023437 36.6875-.003906 35.5-.023437 35.601563-.398438 1.871093-1.988281 3.695312-3.355469 5.035156-.097656.039062-15.644531 16.140625-67.746094 22.074218l-.121094.015626c-4.421874.53125-8.082031 3.882812-8.734374 8.289062-.957032 6.449219 3.980468 11.640625 9.867187 11.640625 11.984375 0 51.203125-8.449219 70.082031-19.65625l-.011718 31.171875c-20.3125 4.457031-39.546876 13.453125-56.015626 26.304688zm56.058594-84.828126c0-.007812.003906-.015624.003906-.023437-.007812.03125-.003906.023437-.003906.023437zm-.046875-63.371093c-.347656 3.371093-6.863281 11.40625-29.074219 18.679687-21.585937 7.070313-50.332031 10.964844-80.941406 10.964844-30.988281 0-59.984375-3.976562-81.648437-11.199219-22.382813-7.460937-28.296875-15.550781-28.296875-18.785156v-35.042969c24.273437 14.550782 67.28125 22.046875 109.945312 22.046875 42.65625 0 85.757813-7.492187 110.03125-22.039062zm-191.652343-82.125c21.671874-7.226563 50.679687-11.203125 81.679687-11.203125s60.011719 3.976562 81.679687 11.203125c22.394532 7.460937 28.308594 15.554687 28.308594 18.792969 0 3.238281-5.914062 11.332031-28.308594 18.792968-21.667968 7.226563-50.679687 11.203125-81.679687 11.203125s-60.007813-3.976562-81.679687-11.203125c-22.390626-7.464844-28.308594-15.558594-28.308594-18.792968 0-3.238282 5.917968-11.332032 28.308594-18.792969zm0 349.550781c-22.390626-7.460938-28.308594-15.558594-28.308594-18.792969v-35.054687c24.285156 14.554687 67.308594 22.054687 109.988281 22.054687.625 0 1.261719-.003906 1.890625-.007812-1.25 7.570312-1.890625 15.265625-1.890625 23.007812 0 6.707031.480469 13.394531 1.421875 19.988281-.472656.003907-.945312.007813-1.421875.007813-31 0-60.007813-3.976563-81.679687-11.203125zm341.652343-8.792969c0 66.160157-53.828125 119.984375-119.988281 119.984375-56.035156 0-104.078125-38.042968-116.828125-92.519531-.007813-.027344-.011719-.050781-.019531-.078125-.003906-.011719-.003906-.027344-.007813-.042969-2.078125-8.890625-3.128906-18.089843-3.128906-27.34375 0-10.363281 1.316406-20.628906 3.914063-30.519531 13.378906-51.035156 59.949218-89.46875 116.070312-89.46875 66.160156 0 119.988281 53.828125 119.988281 119.988281zm0 0"/><path d="m240.472656 351.988281c0 16.542969 13.457032 30 29.996094 30 5.515625 0 10 4.484375 10 9.996094 0 5.515625-4.484375 10-10 10-4.269531 0-8.882812-2.6875-12.984375-7.5625-3.550781-4.226563-9.859375-4.773437-14.085937-1.21875-4.226563 3.550781-4.773438 9.859375-1.21875 14.085937 5.34375 6.359376 11.628906 10.789063 18.292968 13.023438v11.667969c0 5.523437 4.476563 10 9.996094 10 5.523438 0 10-4.476563 10-10v-11.71875c11.636719-4.128907 19.996094-15.242188 19.996094-28.277344 0-16.539063-13.453125-29.996094-29.996094-29.996094-5.511719 0-9.996094-4.484375-9.996094-10 0-5.511719 4.484375-9.996093 9.996094-9.996093 3.542969 0 7.285156 1.804687 10.816406 5.226562 3.96875 3.839844 10.296875 3.734375 14.136719-.234375s3.738281-10.300781-.230469-14.136719c-5.074218-4.914062-10.152344-7.6875-14.722656-9.207031v-11.644531c0-5.523438-4.476562-10-10-10s-10 4.476562-10 10v11.71875c-11.636719 4.125-19.996094 15.238281-19.996094 28.273437zm0 0"/></svg>